<?xml version="1.0" encoding="UTF-8"?>
<svg version="1.1" xmlns="http://www.w3.org/2000/svg" width="1000" height="1000">
<path d="M0 0 C6.40898365 5.64285228 9.40829842 13.18185859 10.4375 21.5625 C9.0925816 32.12971599 4.64198972 40.57378411 -3 48 C-3.75023437 48.44730469 -4.50046875 48.89460938 -5.2734375 49.35546875 C-8.7380364 51.44514803 -11.64538498 53.97071603 -14.6875 56.625 C-15.30616943 57.15915527 -15.92483887 57.69331055 -16.56225586 58.24365234 C-20.11181756 61.31874262 -23.60277833 64.44886208 -27.0625 67.625 C-33.26282654 73.24784515 -39.9594525 78.2270282 -46.65429688 83.23828125 C-53.29939872 88.21618156 -59.61934603 93.3451566 -65.68066406 99.02392578 C-69.54577538 102.63316313 -73.57249677 105.95356028 -77.73828125 109.20703125 C-79.88733555 110.9106857 -81.94627346 112.68340477 -84 114.5 C-87 117 -87 117 -89 117 C-89 117.66 -89 118.32 -89 119 C-92.2503023 122.83071342 -92.2503023 122.83071342 -94.9375 123.4375 C-98.19800172 124.32672774 -99.8129389 126.5173901 -102 129 C-102.33 129.99 -102.66 130.98 -103 132 C-101.95004431 132.00097681 -100.90008863 132.00195362 -99.8183161 132.00296003 C-53.54222739 132.04620835 -7.26614431 132.09315915 39.00991821 132.15898132 C39.71058694 132.15997689 40.41125566 132.16097246 41.13315677 132.16199819 C56.36081129 132.18365705 71.58846477 132.20597977 86.81611731 132.22898628 C94.28382412 132.24026474 101.75153114 132.2513965 109.21923828 132.26245117 C110.33392439 132.26410502 110.33392439 132.26410502 111.4711294 132.26579228 C135.55512753 132.30145671 159.63912426 132.32743614 183.7231393 132.34838969 C208.47392216 132.36997451 233.22467385 132.40133704 257.97542809 132.44499113 C261.47181462 132.45115332 264.96820133 132.4572038 268.46458817 132.46318626 C269.49679023 132.46495759 269.49679023 132.46495759 270.54984486 132.46676469 C281.62404255 132.4854815 292.69822525 132.49390015 303.77243682 132.49846124 C314.90749781 132.5032674 326.04250939 132.51917942 337.17754225 132.54566566 C343.21005072 132.55969011 349.24246429 132.56884788 355.27499008 132.56500816 C360.79849034 132.56159902 366.32178789 132.57195686 371.84524663 132.59323552 C373.84271259 132.59850561 375.84019959 132.59873602 377.83766536 132.59339563 C402.66443101 132.53378405 402.66443101 132.53378405 412.859375 142.48828125 C418.55310848 149.16906707 419.68726494 156.1941599 419.3828125 164.8203125 C418.41627727 172.84847248 415.02207019 179.58446925 409 185 C401.87627883 190.3469813 393.83948073 191.30418636 385.23816681 191.24609566 C384.38812596 191.24840335 383.53808511 191.25071103 382.66228545 191.25308865 C379.81876332 191.25837526 376.97546845 191.24941567 374.13195801 191.24050903 C372.07090245 191.24138137 370.0098471 191.24313288 367.94879293 191.24568737 C362.28885556 191.25015929 356.62899388 191.24215927 350.96906614 191.23213124 C344.8641736 191.22349686 338.75928536 191.2264169 332.65438843 191.22793579 C322.07844391 191.22898465 311.50252656 191.22277779 300.92658997 191.21146011 C289.83583967 191.19962196 278.74509922 191.19192739 267.65434265 191.18975449 C266.96449187 191.18961701 266.27464109 191.18947953 265.56388574 191.18933788 C262.06041506 191.18866121 258.55694436 191.18805844 255.05347365 191.18748413 C230.2449523 191.18328444 205.4364438 191.16981289 180.62792969 191.15087891 C156.52832101 191.13250721 132.42871584 191.11834137 108.32910156 191.10986328 C107.58611393 191.10960023 106.84312629 191.10933718 106.07762388 191.10906615 C98.6161677 191.10642909 91.1547115 191.10387747 83.69325527 191.10138843 C68.49370482 191.09631615 53.29415461 191.09067364 38.09460449 191.08468628 C37.04635175 191.08427441 37.04635175 191.08427441 35.97692218 191.08385422 C-10.68205734 191.06545604 -57.34102931 191.03372438 -104 191 C-102.515 191.99 -102.515 191.99 -101 193 C-100.67 193.99 -100.34 194.98 -100 196 C-99.01 196.33 -98.02 196.66 -97 197 C-97 197.99 -97 198.98 -97 200 C-95.68 200.33 -94.36 200.66 -93 201 C-93 201.66 -93 202.32 -93 203 C-92.43925781 203.25136719 -91.87851562 203.50273438 -91.30078125 203.76171875 C-82.98113651 208.23935438 -75.81317659 215.8860239 -68.72314453 222.10595703 C-63.93307978 226.27533734 -58.99040049 230.18710858 -53.85986328 233.92944336 C-52.53935785 234.90885652 -51.26423629 235.94895702 -50 237 C-50 237.66 -50 238.32 -50 239 C-48.96746094 239.32291016 -48.96746094 239.32291016 -47.9140625 239.65234375 C-44.14617377 241.39486602 -41.45304673 243.81412246 -38.375 246.5625 C-37.1285359 247.65471008 -35.88112991 248.74584611 -34.6328125 249.8359375 C-34.01825195 250.37444336 -33.40369141 250.91294922 -32.77050781 251.46777344 C-30.30906987 253.59794229 -27.78395305 255.64445523 -25.25 257.6875 C-20.82775674 261.27327789 -16.61080445 265.037743 -12.41015625 268.87890625 C-10.1166933 270.89730234 -7.76006398 272.73614515 -5.3125 274.5625 C0.76224281 279.21801086 7.42432011 285.19194342 9 293 C9.99814034 303.21846178 8.95687768 312.02966945 2.6875 320.375 C-0.28383576 323.27723493 -3.26976339 325.25508682 -7 327 C-7.63035156 327.30035156 -8.26070312 327.60070312 -8.91015625 327.91015625 C-16.843144 331.30099594 -24.03735308 330.70767716 -32.01171875 327.6171875 C-37.02766622 324.90267475 -41.1335844 321.17215388 -45.34765625 317.36328125 C-47.7486783 315.01686103 -47.7486783 315.01686103 -50 314 C-50 313.34 -50 312.68 -50 312 C-50.52722656 311.78085937 -51.05445313 311.56171875 -51.59765625 311.3359375 C-54.8891775 309.50553056 -57.60752876 307.08303217 -60.4375 304.625 C-66.82644956 298.73661852 -66.82644956 298.73661852 -74 294 C-74 293.34 -74 292.68 -74 292 C-75.65 291.34 -77.3 290.68 -79 290 C-79 289.34 -79 288.68 -79 288 C-79.8353125 287.9071875 -79.8353125 287.9071875 -80.6875 287.8125 C-83.95201402 286.66550859 -85.57625359 284.45842089 -88 282 C-89.98518464 280.26835797 -91.9775366 278.56141573 -94 276.875 C-95.15115142 275.90898494 -96.30218978 274.94283513 -97.453125 273.9765625 C-98.03900391 273.48575195 -98.62488281 272.99494141 -99.22851562 272.48925781 C-100.96589008 271.02867565 -102.69526342 269.55922 -104.421875 268.0859375 C-114.13013823 259.19270191 -114.13013823 259.19270191 -125 252 C-125 251.34 -125 250.68 -125 250 C-126.32 249.67 -127.64 249.34 -129 249 C-129 248.34 -129 247.68 -129 247 C-129.84884766 246.63068359 -129.84884766 246.63068359 -130.71484375 246.25390625 C-134.25341358 244.31222947 -136.94108907 241.51699451 -139.87890625 238.77734375 C-141.96642227 236.80734668 -141.96642227 236.80734668 -145 236 C-146.70291576 234.37038856 -148.36507086 232.69781103 -150 231 C-160.39885633 220.34036929 -160.39885633 220.34036929 -173 213 C-174.69072514 211.35774422 -176.35382531 209.68690973 -178 208 C-179.9604324 206.31133683 -181.94032035 204.64503858 -183.9375 203 C-184.93652344 202.175 -185.93554688 201.35 -186.96484375 200.5 C-187.96644531 199.675 -188.96804687 198.85 -190 198 C-192.00299716 196.33688284 -194.00175299 194.66883572 -196 193 C-196.68964844 192.42636719 -197.37929687 191.85273437 -198.08984375 191.26171875 C-202.80515641 187.24423249 -207.31625712 183.00758798 -211 178 C-211 177.34 -211 176.68 -211 176 C-211.66 175.67 -212.32 175.34 -213 175 C-216.56665124 167.2225006 -216.79517611 160.08519469 -213.97265625 152.08984375 C-209.12370455 141.19727109 -200.58467077 133.54247953 -191.0703125 126.6328125 C-188.88906986 124.98490351 -188.88906986 124.98490351 -186.76953125 122.71484375 C-183.26836414 119.28281111 -179.46117809 116.40066019 -175.5625 113.4375 C-166.87540823 106.75795896 -158.55631423 99.74271536 -150.31591797 92.52490234 C-142.74655357 85.90634258 -135.00578309 79.64056247 -126.97875977 73.58325195 C-122.50640729 70.19504404 -118.23540788 66.68929373 -114.1015625 62.890625 C-111.6349862 60.67162327 -109.07818742 58.58811874 -106.5 56.5 C-103.07105654 53.71964668 -99.71670478 50.8928327 -96.4375 47.9375 C-83.13091046 36 -83.13091046 36 -80 36 C-79.731875 35.38125 -79.46375 34.7625 -79.1875 34.125 C-77.49164712 31.09031591 -74.86167652 29.90778434 -72 28 C-66.36829928 23.5859643 -60.93373241 18.9903948 -55.6875 14.125 C-51.50209816 10.28187636 -47.20304217 6.64975734 -42.75 3.125 C-42.18369873 2.6727002 -41.61739746 2.22040039 -41.03393555 1.75439453 C-27.9883131 -8.44397659 -13.81946719 -10.55458288 0 0 Z " fill="#030303" transform="translate(398,338)"/>
<path d="M0 0 C0 3.58858023 -1.1285412 4.88023765 -3.453125 7.51171875 C-10.38525326 14.1812664 -19.54884481 15.30831742 -28.76183319 15.24609566 C-29.61187404 15.24840335 -30.46191489 15.25071103 -31.33771455 15.25308865 C-34.18123668 15.25837526 -37.02453155 15.24941567 -39.86804199 15.24050903 C-41.92909755 15.24138137 -43.9901529 15.24313288 -46.05120707 15.24568737 C-51.71114444 15.25015929 -57.37100612 15.24215927 -63.03093386 15.23213124 C-69.1358264 15.22349686 -75.24071464 15.2264169 -81.34561157 15.22793579 C-91.92155609 15.22898465 -102.49747344 15.22277779 -113.07341003 15.21146011 C-124.16416033 15.19962196 -135.25490078 15.19192739 -146.34565735 15.18975449 C-147.03550813 15.18961701 -147.72535891 15.18947953 -148.43611426 15.18933788 C-151.93958494 15.18866121 -155.44305564 15.18805844 -158.94652635 15.18748413 C-183.7550477 15.18328444 -208.5635562 15.16981289 -233.37207031 15.15087891 C-257.47167899 15.13250721 -281.57128416 15.11834137 -305.67089844 15.10986328 C-306.41388607 15.10960023 -307.15687371 15.10933718 -307.92237612 15.10906615 C-315.3838323 15.10642909 -322.8452885 15.10387747 -330.30674473 15.10138843 C-345.50629518 15.09631615 -360.70584539 15.09067364 -375.90539551 15.08468628 C-376.95364825 15.08427441 -376.95364825 15.08427441 -378.02307782 15.08385422 C-424.68205734 15.06545604 -471.34102931 15.03372438 -518 15 C-517.01 15.66 -516.02 16.32 -515 17 C-515.33 17.99 -515.66 18.98 -516 20 C-519.54865549 18.02852473 -522.18600451 15.91020046 -525 13 C-524.13760078 12.99826375 -523.27520157 12.9965275 -522.38666904 12.99473864 C-470.83394159 12.89084308 -419.28122485 12.78256302 -367.728518 12.66888306 C-361.48535321 12.65511977 -355.24218835 12.64139174 -348.99902344 12.62768555 C-347.13531641 12.62359309 -347.13531641 12.62359309 -345.23395874 12.61941796 C-325.33312778 12.57580164 -305.43229205 12.53501545 -285.53145288 12.49534739 C-264.98514501 12.45432698 -244.4388457 12.41009827 -223.89255059 12.36312145 C-212.40525701 12.33694298 -200.91796425 12.31208986 -189.43066025 12.29092598 C-161.30470492 12.23849824 -133.1790278 12.16015514 -105.05338037 12.01564389 C-102.9969559 12.00510787 -100.94053054 11.9947456 -98.88410437 11.98454684 C-85.56433901 11.91836229 -72.24493587 11.83292611 -58.92552018 11.71546924 C-55.14117792 11.68251405 -51.35688251 11.65611427 -47.57245231 11.63569558 C-43.20274923 11.6117245 -38.83339964 11.57365432 -34.46391067 11.52438147 C-32.87668956 11.50877068 -31.2894111 11.49806258 -29.70212212 11.49274556 C-21.94100973 11.46362483 -15.11076019 11.41891669 -8 8 C-6.515 7.505 -6.515 7.505 -5 7 C-4.29848848 5.6846659 -3.63474075 4.34882408 -3 3 C-1.375 1.25 -1.375 1.25 0 0 Z " fill="#C7C7C7" transform="translate(812,514)"/>
<path d="M0 0 C1.27537809 -0.00054639 1.27537809 -0.00054639 2.5765214 -0.00110382 C5.45693465 -0.00108306 8.33728579 0.00616517 11.21768951 0.01333237 C13.29118781 0.0148772 15.36468647 0.01598934 17.43818521 0.01670337 C23.16076522 0.01999117 28.88331992 0.02963498 34.60589027 0.04031062 C40.7683362 0.05074938 46.93078691 0.05546593 53.09323883 0.06098557 C67.28478961 0.07491735 81.47631922 0.09739146 95.66785609 0.12107444 C102.67963055 0.13270217 109.69140673 0.143049 116.70318341 0.15323574 C140.70117678 0.18812205 164.6991655 0.22511239 188.69714355 0.26939392 C190.20430538 0.27216984 191.71146721 0.27494565 193.21862903 0.27772133 C194.72946034 0.28050566 196.24029165 0.28329017 197.75112295 0.28607488 C200.7821741 0.29166117 203.81322526 0.29724306 206.84427643 0.30282211 C207.59580378 0.30420756 208.34733114 0.30559302 209.12163205 0.30702045 C233.48327262 0.35184829 257.84490797 0.38444505 282.20657622 0.409667 C307.95725132 0.43637167 333.70788815 0.47388226 359.458529 0.52384162 C362.28570454 0.52928677 365.11288016 0.53468835 367.94005585 0.54005814 C368.98426676 0.54204921 368.98426676 0.54204921 370.04957285 0.54408051 C381.25197536 0.56518984 392.45436722 0.57649738 403.65678597 0.58431043 C414.9193121 0.59241707 426.18177765 0.61184273 437.44427007 0.64196286 C443.54564858 0.65797487 449.64693532 0.66915252 455.74833679 0.66736031 C461.3346751 0.66583602 466.9208082 0.67807958 472.50709707 0.70125863 C474.5273816 0.70722314 476.54768862 0.70815507 478.56797665 0.70352724 C503.57861942 0.65301749 503.57861942 0.65301749 513.77005768 10.60409164 C519.53185178 17.36473691 520.50816024 24.33356867 520.25052643 33.04159164 C519.79292233 37.18106782 518.67896024 40.35822057 516.91068268 44.11581039 C516.58068268 44.11581039 516.25068268 44.11581039 515.91068268 44.11581039 C515.86813912 42.11626293 515.86987485 40.11539403 515.91068268 38.11581039 C516.24068268 37.78581039 516.57068268 37.45581039 516.91068268 37.11581039 C517.51047911 28.397839 517.55388755 18.96569391 511.7137444 11.88896668 C502.043169 2.37878667 489.7464317 3.2650832 477.18198395 3.35631943 C475.07621898 3.34956546 472.97046109 3.34018268 470.8647182 3.32841003 C465.09963303 3.30373797 459.33514198 3.31620062 453.57005644 3.33487368 C447.34521841 3.3484791 441.12048484 3.32743812 434.89566803 3.31064987 C424.11783705 3.28630312 413.34023052 3.28359562 402.56239319 3.29623413 C391.26278996 3.30939324 379.96329765 3.31012075 368.66369629 3.29436493 C367.60853736 3.29290407 367.60853736 3.29290407 366.53206208 3.29141369 C362.9594265 3.28640304 359.38679128 3.28117144 355.81415614 3.27585481 C330.53089032 3.23862645 305.24768271 3.2290905 279.96439362 3.23592758 C255.40708035 3.24250475 230.84982276 3.23648395 206.29251862 3.21346664 C205.53511653 3.21276175 204.77771444 3.21205685 203.99736077 3.21133059 C196.39098882 3.20423761 188.78461713 3.19688915 181.1782456 3.18935354 C165.68417234 3.17400942 150.19009775 3.16037015 134.69602203 3.1477623 C133.62751069 3.14688967 133.62751069 3.14688967 132.53741327 3.14599942 C84.99517808 3.10736836 37.4529307 3.10859915 -10.08931732 3.11581039 C-10.08931732 2.45581039 -10.08931732 1.79581039 -10.08931732 1.11581039 C-6.91262213 -0.4725372 -3.4879405 -0.01470081 0 0 Z " fill="#B8B8B8" transform="translate(297.08931732177734,469.8841896057129)"/>
<path d="M0 0 C22.15742405 -0.09348545 44.31481552 -0.1639999 66.47239685 -0.20724869 C76.76079912 -0.22786456 87.04907878 -0.25596659 97.33740234 -0.30175781 C106.30582131 -0.34165535 115.27415146 -0.3674399 124.24265671 -0.37635398 C128.99043524 -0.38156377 133.73795971 -0.39378845 138.48565674 -0.42292023 C142.95736273 -0.45013539 147.42871077 -0.45843268 151.90049171 -0.45243073 C153.53873453 -0.45352824 155.17698972 -0.46144582 156.81516075 -0.4768219 C166.42820884 -0.56260079 173.19193665 -0.19935516 181.171875 5.5703125 C187.63498954 11.93744019 190.18603214 18.57215709 190.4375 27.625 C190.27729086 33.0400688 189.29833156 37.11604544 187 42 C186.67 42 186.34 42 186 42 C185.95745644 40.00045254 185.95919217 37.99958364 186 36 C186.33 35.67 186.66 35.34 187 35 C187.60118642 26.26182526 187.62245887 16.88919613 181.81847 9.77310371 C173.21670275 1.38592909 162.43445738 1.13338584 151.21582031 1.22705078 C149.55888436 1.21886386 147.90195965 1.20805221 146.24505615 1.19483948 C141.78286323 1.16658971 137.32141407 1.17469343 132.85918522 1.18970728 C128.18263765 1.19913285 123.50626606 1.17459481 118.82977295 1.15377808 C109.99027849 1.11953003 101.15104308 1.11548662 92.31149554 1.12250316 C82.24119772 1.12901041 72.17108038 1.10152858 62.10083628 1.07130075 C41.40053724 1.00992049 20.70038023 0.99086934 0 1 C0 0.67 0 0.34 0 0 Z " fill="#6F6F6F" transform="translate(627,472)"/>
<path d="M0 0 C0 3.58388994 -1.12807928 4.87034906 -3.4375 7.5078125 C-8.77204394 12.60230196 -14.61523678 14.12668886 -21.79595947 14.12025452 C-23.57117981 14.12231651 -23.57117981 14.12231651 -25.38226318 14.12442017 C-26.67698547 14.12082489 -27.97170776 14.11722961 -29.30566406 14.11352539 C-30.68554685 14.11324326 -32.0654298 14.11340176 -33.4453125 14.1139679 C-37.18877105 14.11425485 -40.93219758 14.10837457 -44.67564869 14.10139394 C-48.58875682 14.09514346 -52.50186568 14.09455526 -56.41497803 14.09336853 C-63.82387226 14.09026022 -71.23275174 14.08205356 -78.64163947 14.07201904 C-87.07687805 14.06084239 -95.51211733 14.05534354 -103.94736147 14.05032361 C-121.29824951 14.03987054 -138.6491232 14.02228076 -156 14 C-156 13.67 -156 13.34 -156 13 C-149.94314568 12.87198031 -143.88620392 12.74928033 -137.8291626 12.63043213 C-135.5236088 12.58508939 -133.21806668 12.53914883 -130.91253662 12.49261475 C-114.76722111 12.17042074 -98.62411773 11.95631774 -82.47603989 11.83836937 C-79.55018404 11.81643106 -76.62435111 11.79253954 -73.69851685 11.76789856 C-72.73126112 11.75976607 -71.76400539 11.75163359 -70.76743889 11.74325466 C-68.81216296 11.72675575 -66.85688774 11.71017263 -64.90161324 11.69350529 C-59.06782889 11.64504042 -53.23413927 11.60995571 -47.40021515 11.58375072 C-43.70745132 11.56411039 -40.01486063 11.53230173 -36.32221222 11.49743462 C-34.590877 11.48367824 -32.85949223 11.47505785 -31.12810516 11.47194099 C-28.73367999 11.467008 -26.3400608 11.4438211 -23.94580078 11.41650391 C-22.90979012 11.4210098 -22.90979012 11.4210098 -21.85284996 11.42560673 C-16.60626528 11.33696749 -12.77737382 9.98875867 -8 8 C-7.01 7.67 -6.02 7.34 -5 7 C-4.29848848 5.6846659 -3.63474075 4.34882408 -3 3 C-1.375 1.25 -1.375 1.25 0 0 Z " fill="#6B6B6B" transform="translate(812,514)"/>
<path d="M0 0 C6.40898365 5.64285228 9.40829842 13.18185859 10.4375 21.5625 C9.75599746 26.91716281 8.91756361 33.08243639 5 37 C5.23009766 35.80503906 5.23009766 35.80503906 5.46484375 34.5859375 C6.10961107 30.26552585 6.35042888 25.98462602 6.5625 21.625 C6.62727539 20.37783203 6.62727539 20.37783203 6.69335938 19.10546875 C6.79861805 17.07046772 6.89973072 15.03525297 7 13 C6.34 13 5.68 13 5 13 C4.75765625 12.46890625 4.5153125 11.9378125 4.265625 11.390625 C0.66520603 3.80204963 -3.28472081 0.25756233 -11 -3 C-13.38084878 -3.84298574 -13.38084878 -3.84298574 -16 -4 C-17.02480469 -4.14695312 -17.02480469 -4.14695312 -18.0703125 -4.296875 C-28.5783875 -5.17536359 -36.80747973 0.97941865 -44.49658203 7.43164062 C-46.84410696 9.45913459 -49.15861077 11.5200571 -51.45654297 13.60351562 C-53.57001346 15.51573505 -55.72236322 17.38210353 -57.875 19.25 C-58.91735852 20.16587987 -59.95935977 21.08216824 -61 22 C-61.66 21.67 -62.32 21.34 -63 21 C-56.41796497 14.73503974 -49.76121085 8.63308457 -42.625 3 C-42.06731934 2.55615967 -41.50963867 2.11231934 -40.93505859 1.6550293 C-27.90723481 -8.4762196 -13.75583583 -10.5059846 0 0 Z " fill="#CCCCCC" transform="translate(398,338)"/>
<path d="M0 0 C8.31019985 4.06669354 16.0552622 10.5785598 19.41015625 19.421875 C21.52808301 28.67903831 20.67395232 37.72130014 16 46 C13.003916 50.77307174 9.05814216 53.63392519 4 56 C3.36964844 56.30035156 2.73929687 56.60070312 2.08984375 56.91015625 C-6.40235081 60.54002072 -13.22315216 59.28517199 -21.71484375 56.16796875 C-24 55 -24 55 -26 52 C-19.41935484 53.80645161 -19.41935484 53.80645161 -16.5625 55.125 C-9.84582536 57.41849866 -2.43790292 55.96135424 3.91796875 53.15234375 C7.93752313 51.03543558 10.51445234 48.77117576 13 45 C13.37253906 44.49339844 13.74507813 43.98679687 14.12890625 43.46484375 C18.39315428 36.70445053 17.8633975 28.65390212 17 21 C14.73999852 13.0956732 8.24502153 7.95180468 2 3 C1.34 2.67 0.68 2.34 0 2 C0 1.34 0 0.68 0 0 Z " fill="#C8C8C8" transform="translate(387,609)"/>
<path d="M0 0 C0.66 0.33 1.32 0.66 2 1 C-5.71190869 8.0762199 -13.68466991 14.75209276 -21.859375 21.28515625 C-34.84929605 31.02895185 -34.84929605 31.02895185 -42 45 C-42.43296802 51.33010205 -42.23199079 57.66536261 -42 64 C-41.34 64 -40.68 64 -40 64 C-39.67 65.98 -39.34 67.96 -39 70 C-39.66 69.67 -40.32 69.34 -41 69 C-41 68.34 -41 67.68 -41 67 C-41.66 66.67 -42.32 66.34 -43 66 C-46.56665124 58.2225006 -46.79517611 51.08519469 -43.97265625 43.08984375 C-39.12370455 32.19727109 -30.58467077 24.54247953 -21.0703125 17.6328125 C-18.87992952 15.97471629 -18.87992952 15.97471629 -16.69921875 13.66796875 C-13.55095099 10.55614982 -10.18781524 7.88753719 -6.6875 5.1875 C-6.04232422 4.68541016 -5.39714844 4.18332031 -4.73242188 3.66601562 C-3.15732875 2.44094319 -1.57899684 1.2200368 0 0 Z " fill="#D8D8D8" transform="translate(228,447)"/>
<path d="M0 0 C40.59 0 81.18 0 123 0 C123 0.33 123 0.66 123 1 C84.72 1.33 46.44 1.66 7 2 C7.99 2.66 8.98 3.32 10 4 C9.67 4.99 9.34 5.98 9 7 C5.28127309 4.9340406 3.11257569 3.11257569 0 0 Z " fill="#676767" transform="translate(287,527)"/>
<path d="M0 0 C0 3.51550726 -1.09305428 4.71345237 -3.22265625 7.40234375 C-8.91199781 12.51649913 -13.65494864 13.58448011 -21.05639648 13.45410156 C-21.93524002 13.45468567 -22.81408356 13.45526978 -23.71955872 13.45587158 C-26.60381555 13.45310071 -29.48701905 13.42205626 -32.37109375 13.390625 C-34.37890559 13.38315906 -36.38672476 13.37746779 -38.39454651 13.37347412 C-43.66364879 13.35824566 -48.93230582 13.31898776 -54.20123291 13.2746582 C-59.58396381 13.23364537 -64.96676707 13.21545027 -70.34960938 13.1953125 C-80.89993456 13.1524909 -91.44993017 13.08427329 -102 13 C-102 12.67 -102 12.34 -102 12 C-100.94035034 11.99413376 -99.88070068 11.98826752 -98.78894043 11.98222351 C-88.78430655 11.92491672 -78.77988838 11.85211352 -68.77547455 11.76428509 C-63.63255898 11.71962967 -58.48972176 11.68036285 -53.34667969 11.65356445 C-48.37984669 11.62748339 -43.41331592 11.5870469 -38.44667053 11.53681374 C-36.55538198 11.5201775 -34.66404119 11.50864308 -32.77268982 11.50238609 C-30.11571858 11.49270965 -27.45951491 11.46460849 -24.80273438 11.43237305 C-24.02733307 11.43380814 -23.25193176 11.43524323 -22.45303345 11.4367218 C-17.02829884 11.34413431 -13.00098836 10.11113727 -8 8 C-7.01 7.67 -6.02 7.34 -5 7 C-4.29848848 5.6846659 -3.63474075 4.34882408 -3 3 C-1.375 1.25 -1.375 1.25 0 0 Z " fill="#161616" transform="translate(812,514)"/>
<path d="M0 0 C7.13422699 0.35671135 12.16780678 4.76863546 16.8125 9.875 C22.21025932 17.58608475 22.895898 24.75387317 22 34 C21.24541315 36.90125634 20.28264574 39.2743778 19 42 C18.67 42 18.34 42 18 42 C17.95745644 40.00045254 17.95919217 37.99958364 18 36 C18.33 35.67 18.66 35.34 19 35 C19.61552125 26.05347017 19.45004598 17.09352585 13.83984375 9.67578125 C9.90098994 6.08816281 4.84076337 4.1077008 0 2 C0 1.34 0 0.68 0 0 Z " fill="#C6C6C6" transform="translate(795,472)"/>
<path d="M0 0 C0 0.33 0 0.66 0 1 C-1.50626953 0.98646484 -1.50626953 0.98646484 -3.04296875 0.97265625 C-19.44410982 1.17640966 -29.68027119 8.92636255 -41.45654297 19.60351562 C-43.57001346 21.51573505 -45.72236322 23.38210353 -47.875 25.25 C-48.91735852 26.16587987 -49.95935977 27.08216824 -51 28 C-51.66 27.67 -52.32 27.34 -53 27 C-46.41796497 20.73503974 -39.76121085 14.63308457 -32.625 9 C-32.06731934 8.55615967 -31.50963867 8.11231934 -30.93505859 7.6550293 C-21.40557917 0.24431131 -12.05741262 -3.11159035 0 0 Z " fill="#E9E9E9" transform="translate(388,332)"/>
<path d="M0 0 C0 4.04766799 -1.23195501 5.09000399 -4 8 C-11.40066471 12.83889616 -19.00545794 16.32188158 -28 15 C-38.16720604 12.24919094 -38.16720604 12.24919094 -41 8 C-34.41935484 9.80645161 -34.41935484 9.80645161 -31.5625 11.125 C-24.84582536 13.41849866 -17.43790292 11.96135424 -11.08203125 9.15234375 C-7.07910077 7.0441906 -4.64077866 4.61884483 -2 1 C-1.34 0.67 -0.68 0.34 0 0 Z " fill="#E5E5E5" transform="translate(402,653)"/>
<path d="M0 0 C4.83158403 1.511001 7.92588541 4.25893328 11.625 7.5625 C12.86225239 8.6483089 14.10054676 9.73293156 15.33984375 10.81640625 C15.95327637 11.35410645 16.56670898 11.89180664 17.19873047 12.44580078 C20.64669891 15.4208302 24.22262506 18.23620094 27.79296875 21.0625 C29.88456547 22.89866279 31.43160053 24.71126071 33 27 C29.34683329 25.75023244 28.21934164 25.32901247 26 22 C24.3378321 20.99254 22.67049394 19.99359336 21 19 C19.23722804 17.47551365 17.50982109 15.90953624 15.8125 14.3125 C11.30474492 10.13547695 6.66191826 6.25345781 1.80078125 2.49609375 C1.20652344 2.00238281 0.61226563 1.50867188 0 1 C0 0.67 0 0.34 0 0 Z " fill="#D0D0D0" transform="translate(348,577)"/>
<path d="M0 0 C0.66 0.33 1.32 0.66 2 1 C-6.29782044 8.90397954 -14.79024738 16.17364328 -24 23 C-25.33359693 23.99964844 -26.66705035 24.99948863 -28 26 C-28.66 25.67 -29.32 25.34 -30 25 C-29.21238281 24.33355469 -28.42476563 23.66710937 -27.61328125 22.98046875 C-27.09306396 22.54025391 -26.57284668 22.10003906 -26.03686523 21.64648438 C-24.87634387 20.66456795 -23.71569702 19.68279983 -22.55493164 18.70117188 C-19.49463365 16.11279863 -16.43639451 13.52207561 -13.3828125 10.92578125 C-12.80490967 10.43505127 -12.22700684 9.94432129 -11.6315918 9.4387207 C-10.52550725 8.49936976 -9.42016693 7.55914158 -8.31567383 6.61791992 C-5.60645564 4.31888966 -2.8715789 2.09342922 0 0 Z " fill="#D3D3D3" transform="translate(377,397)"/>
<path d="M0 0 C0.66 0 1.32 0 2 0 C0.125 5.75 0.125 5.75 -1 8 C-1.08342159 9.44848582 -1.10732861 10.90070869 -1.09765625 12.3515625 C-1.09443359 13.20234375 -1.09121094 14.053125 -1.08789062 14.9296875 C-1.07951172 15.81914062 -1.07113281 16.70859375 -1.0625 17.625 C-1.05798828 18.5221875 -1.05347656 19.419375 -1.04882812 20.34375 C-1.03702591 22.56256648 -1.02056155 24.78125018 -1 27 C-0.34 27 0.32 27 1 27 C1.33 28.98 1.66 30.96 2 33 C1.34 32.67 0.68 32.34 0 32 C0 31.34 0 30.68 0 30 C-0.66 29.67 -1.32 29.34 -2 29 C-5.44663357 21.48421315 -5.8867121 14.11998888 -3.03125 6.37109375 C-2.0833555 4.20786309 -1.08827292 2.09555808 0 0 Z " fill="#AFAFAF" transform="translate(187,484)"/>
<path d="M0 0 C0.66 0.33 1.32 0.66 2 1 C-5.15140809 7.18277357 -12.31402651 13.3156716 -19.734375 19.17578125 C-23.25212962 22.00818023 -26.63333024 24.99068625 -30 28 C-30.66 27.67 -31.32 27.34 -32 27 C-26.74167039 21.42826002 -21.02215795 16.71814737 -15 12 C-12.28741049 9.83864298 -9.58138136 7.66912257 -6.875 5.5 C-5.56000285 4.44778291 -4.24490729 3.39568879 -2.9296875 2.34375 C-1.96289062 1.5703125 -0.99609375 0.796875 0 0 Z " fill="#DDDDDD" transform="translate(274,409)"/>
<path d="M0 0 C1.32 0.33 2.64 0.66 4 1 C4 1.66 4 2.32 4 3 C4.55300781 3.24492188 5.10601562 3.48984375 5.67578125 3.7421875 C13.95262281 8.2214194 21.05413983 15.70585017 28 22 C22.63013087 22 18.9545982 17.36011612 15 14 C14.36223633 13.45923828 13.72447266 12.91847656 13.06738281 12.36132812 C10.99802838 10.60105224 8.93501529 8.83369393 6.875 7.0625 C6.19920898 6.48282471 5.52341797 5.90314941 4.82714844 5.3059082 C3.19828931 3.89312651 1.59631425 2.44945334 0 1 C0 0.67 0 0.34 0 0 Z " fill="#D5D5D5" transform="translate(301,538)"/>
<path d="M0 0 C9.24 0 18.48 0 28 0 C28 0.33 28 0.66 28 1 C17.605 1.495 17.605 1.495 7 2 C7.99 2.66 8.98 3.32 10 4 C9.67 4.99 9.34 5.98 9 7 C5.28127309 4.9340406 3.11257569 3.11257569 0 0 Z " fill="#5D5D5D" transform="translate(287,527)"/>
<path d="M0 0 C2 1 2 1 2.625 2.625 C3.71596678 9.53445628 2.56677495 15.55951423 0 22 C-0.66 22.66 -1.32 23.32 -2 24 C-1.76990234 22.80503906 -1.76990234 22.80503906 -1.53515625 21.5859375 C-0.89038893 17.26552585 -0.64957112 12.98462602 -0.4375 8.625 C-0.39431641 7.79355469 -0.35113281 6.96210938 -0.30664062 6.10546875 C-0.20138195 4.07046772 -0.10026928 2.03525297 0 0 Z " fill="#A0A0A0" transform="translate(405,351)"/>
<path d="M0 0 C1.485 0.99 1.485 0.99 3 2 C4.08138907 9.48490868 3.19779366 16.20468847 0 23 C-0.33 23 -0.66 23 -1 23 C-1.04254356 21.00045254 -1.04080783 18.99958364 -1 17 C-0.67 16.67 -0.34 16.34 0 16 C0.07319621 13.30345146 0.09242537 10.63308542 0.0625 7.9375 C0.05798828 7.17888672 0.05347656 6.42027344 0.04882812 5.63867188 C0.0370068 3.75908129 0.01907078 1.87953101 0 0 Z " fill="#8C8C8C" transform="translate(814,491)"/>
<path d="M0 0 C0.66 0.33 1.32 0.66 2 1 C0.38050958 2.50594681 -1.24575974 4.00460668 -2.875 5.5 C-3.77992188 6.3353125 -4.68484375 7.170625 -5.6171875 8.03125 C-8 10 -8 10 -10 10 C-10 10.66 -10 11.32 -10 12 C-11.75 14.1875 -11.75 14.1875 -14 16 C-16.140625 15.61328125 -16.140625 15.61328125 -18 15 C-15.75131288 13.0609583 -13.50111139 11.12372378 -11.25 9.1875 C-10.61578125 8.64029297 -9.9815625 8.09308594 -9.328125 7.52929688 C-6.28730038 4.91608821 -3.25718629 2.3441871 0 0 Z " fill="#C2C2C2" transform="translate(319,445)"/>
<path d="M0 0 C0 4.04766799 -1.23195501 5.09000399 -4 8 C-10.01205458 12.03035284 -13.91531281 13.11426915 -21 13 C-21 12.67 -21 12.34 -21 12 C-19.824375 11.7525 -18.64875 11.505 -17.4375 11.25 C-10.69835638 9.54434064 -6.16198914 6.7034666 -2 1 C-1.34 0.67 -0.68 0.34 0 0 Z " fill="#D4D4D4" transform="translate(402,653)"/>
<path d="M0 0 C0 3.58281603 -1.12514163 4.86965709 -3.4375 7.50390625 C-7.17507164 11.08263109 -10.73461926 13 -16 13 C-16 12.34 -16 11.68 -16 11 C-14.72942818 10.52014033 -13.45853152 10.0411407 -12.1875 9.5625 C-11.47980469 9.29566406 -10.77210938 9.02882813 -10.04296875 8.75390625 C-8.37327604 8.13774814 -6.68842296 7.56280765 -5 7 C-4.29848848 5.6846659 -3.63474075 4.34882408 -3 3 C-1.375 1.25 -1.375 1.25 0 0 Z " fill="#AFAFAF" transform="translate(812,514)"/>
<path d="M0 0 C0.33 0 0.66 0 1 0 C2.17659871 6.91783335 2.22236782 11.67034893 -1 18 C-1.99 18.33 -2.98 18.66 -4 19 C-2.125 13.25 -2.125 13.25 -1 11 C-0.7724985 9.12943209 -0.59037189 7.25314042 -0.4375 5.375 C-0.31181641 3.87066406 -0.31181641 3.87066406 -0.18359375 2.3359375 C-0.12300781 1.56507813 -0.06242187 0.79421875 0 0 Z " fill="#9A9A9A" transform="translate(405,635)"/>
<path d="M0 0 C0.33 0 0.66 0 1 0 C1.33 5.61 1.66 11.22 2 17 C2.66 17 3.32 17 4 17 C4.33 18.98 4.66 20.96 5 23 C4.34 22.67 3.68 22.34 3 22 C3 21.34 3 20.68 3 20 C2.34 19.67 1.68 19.34 1 19 C-0.47311766 15.25698406 -0.1111279 11.20756276 -0.0625 7.25 C-0.05798828 6.55261719 -0.05347656 5.85523438 -0.04882812 5.13671875 C-0.0371002 3.42444197 -0.01916653 1.71220967 0 0 Z " fill="#818181" transform="translate(184,494)"/>
<path d="M0 0 C1.34313399 0.64669414 2.67391178 1.31903578 4 2 C4.845625 2.433125 5.69125 2.86625 6.5625 3.3125 C9.32449168 5.22464808 10.47937364 7.03878024 12 10 C9.50638429 8.79618552 7.31856917 7.54571278 5 6 C5 5.34 5 4.68 5 4 C4.360625 3.71125 3.72125 3.4225 3.0625 3.125 C1 2 1 2 0 0 Z " fill="#B9B9B9" transform="translate(343,646)"/>
<path d="M0 0 C0.66 0.33 1.32 0.66 2 1 C0.38050958 2.50594681 -1.24575974 4.00460668 -2.875 5.5 C-4.23238281 6.75296875 -4.23238281 6.75296875 -5.6171875 8.03125 C-8 10 -8 10 -10 10 C-8.84172638 6.52517915 -7.911812 5.94446638 -5 3.875 C-2.38851475 2.06989989 -2.38851475 2.06989989 0 0 Z " fill="#D0D0D0" transform="translate(331,435)"/>
<path d="M0 0 C4.55384615 -0.36923077 4.55384615 -0.36923077 6.8125 1.5 C7.204375 1.995 7.59625 2.49 8 3 C7.67 3.99 7.34 4.98 7 6 C3.73539027 4.19587357 2.11070205 3.16605307 0 0 Z " fill="#F5F5F5" transform="translate(289,528)"/>
<path d="M0 0 C0.99 0.33 1.98 0.66 3 1 C2.34 1 1.68 1 1 1 C1 1.66 1 2.32 1 3 C-0.75 5.1875 -0.75 5.1875 -3 7 C-5.140625 6.61328125 -5.140625 6.61328125 -7 6 C-5.90716423 4.96704564 -4.80029421 3.94892165 -3.6875 2.9375 C-3.07261719 2.36902344 -2.45773437 1.80054688 -1.82421875 1.21484375 C-0.92123047 0.61349609 -0.92123047 0.61349609 0 0 Z " fill="#E8E8E8" transform="translate(308,454)"/>
<path d="M0 0 C0 0.33 0 0.66 0 1 C-4.02992782 0.44687265 -8.02022924 -0.1558062 -12 -1 C-12 -1.33 -12 -1.66 -12 -2 C-6.93395388 -3.3268216 -4.47171108 -2.66173278 0 0 Z " fill="#DCDCDC" transform="translate(394,335)"/>
<path d="" fill="#FFFFFF" transform="translate(0,0)"/>
<path d="" fill="#FFFFFF" transform="translate(0,0)"/>
</svg>
