<?xml version="1.0" encoding="UTF-8"?>
<svg version="1.1" xmlns="http://www.w3.org/2000/svg" width="500" height="500">
<path d="M0 0 C0.702957 -0.00511093 1.405914 -0.01022186 2.13017273 -0.01548767 C4.44966187 -0.02936613 6.76885323 -0.02842805 9.08837891 -0.02612305 C10.70496735 -0.03001136 12.32155477 -0.03434631 13.93814087 -0.03910828 C17.32581901 -0.04656703 20.71339293 -0.04628203 24.10107422 -0.04101562 C28.43433161 -0.0352259 32.76716088 -0.05214141 37.10034752 -0.0753603 C40.43930541 -0.09012077 43.7781608 -0.09096613 47.11714554 -0.08785057 C48.71427889 -0.08836277 50.31141813 -0.09358144 51.90851974 -0.10366249 C54.14632389 -0.1160528 56.383302 -0.10922012 58.62109375 -0.09765625 C59.89254242 -0.09828568 61.16399109 -0.0989151 62.47396851 -0.0995636 C66.28090678 0.3114723 68.6876133 1.28525616 71.93994141 3.2746582 C74.46208671 6.65273517 75.84924513 10.3399031 77.31494141 14.2746582 C77.9665625 16.00135742 77.9665625 16.00135742 78.63134766 17.76293945 C79.45308471 19.9681383 80.27358481 22.1737989 81.09228516 24.38012695 C83.44609642 30.63318113 86.00713156 36.74892902 88.75244141 42.8371582 C94.13578999 54.78282149 98.94229963 66.95403464 103.56494141 79.2121582 C105.16961063 83.43045256 106.94740844 87.50765701 108.87744141 91.5871582 C111.46496969 97.07324758 113.61254852 102.62943647 115.68530273 108.3215332 C117.69784343 113.78480158 120.08404221 119.01637101 122.57666016 124.27856445 C124.20672264 127.86096537 125.51862046 131.50030629 126.81884766 135.2121582 C128.48796878 139.77170859 130.36611712 144.24022614 132.22827148 148.72363281 C134.21028612 153.49750046 136.15553486 158.28380737 138.06494141 163.0871582 C140.62396601 169.51137622 143.25780713 175.90090504 145.93994141 182.2746582 C146.60140549 183.84887454 147.26286333 185.4230935 147.92431641 186.99731445 C149.3063351 190.28410719 150.68866697 193.57076708 152.07275391 196.85668945 C152.38631836 197.6038623 152.69988281 198.35103516 153.02294922 199.12084961 C153.61841772 200.51947132 154.22647712 201.9128234 154.84912109 203.29956055 C156.12655048 206.15468261 156.93994141 208.10533686 156.93994141 211.2746582 C158.21253626 211.27189282 159.48513111 211.26912745 160.79628944 211.26627827 C191.00243237 211.20131029 221.20855645 211.15183945 251.41475246 211.12146221 C255.13229603 211.11771008 258.84983946 211.11382711 262.56738281 211.10986328 C263.30748141 211.10907635 264.04758001 211.10828942 264.81010585 211.10747864 C276.79501542 211.09442332 288.77988184 211.07076878 300.76476581 211.04319981 C313.06158704 211.01514912 325.35838565 210.99848266 337.65523756 210.99239272 C345.24358219 210.98827557 352.83180485 210.97527006 360.42011194 210.9509088 C366.23799869 210.93318222 372.05582277 210.93129174 377.87373734 210.93533516 C380.26103466 210.93450862 382.64833653 210.92852529 385.03560638 210.91704178 C388.29170022 210.90214489 391.5472696 210.90569471 394.80337524 210.91389465 C395.75085337 210.90515613 396.6983315 210.8964176 397.67452109 210.88741428 C404.50301449 210.93398457 408.69802145 212.17895042 413.81494141 216.9621582 C416.40355944 220.9973569 416.93732395 223.61399211 415.93994141 228.2746582 C413.50390031 233.1467404 410.72583533 235.73776156 405.93994141 238.2746582 C402.43270587 238.84943561 398.97387694 238.81469219 395.42614746 238.78259277 C394.36761425 238.78883274 393.30908103 238.7950727 392.21847105 238.80150175 C388.6716252 238.81745604 385.12546423 238.80481736 381.57861328 238.79223633 C379.03576761 238.79765633 376.49292507 238.8047783 373.9500885 238.81347656 C367.76049224 238.82983161 361.57114958 238.82742534 355.38154995 238.815826 C350.35074021 238.8067889 345.31998484 238.80556886 340.28916931 238.80992126 C339.57289603 238.8105342 338.85662274 238.81114713 338.11864421 238.81177863 C336.66350478 238.81305755 335.20836537 238.8143544 333.75322598 238.815669 C320.11145156 238.82707255 306.46978469 238.81396466 292.8280279 238.79246753 C281.12520693 238.77459673 269.42254467 238.7777009 257.71972656 238.79614258 C244.12645305 238.8175533 230.53327377 238.82597394 216.93998575 238.81369352 C215.49022835 238.81241934 214.04047093 238.81116186 212.5907135 238.80992126 C211.87742314 238.80930416 211.16413278 238.80868706 210.42922756 238.80805126 C205.40502007 238.80459895 200.38087241 238.81042411 195.35667419 238.81983948 C188.5932632 238.83223565 181.83019826 238.82339795 175.06680107 238.80026245 C172.58275794 238.79496778 170.0986896 238.796502 167.61465645 238.80531311 C164.22734037 238.81622161 160.8409897 238.80256035 157.45373535 238.78259277 C156.46754951 238.79151566 155.48136367 238.80043855 154.46529341 238.80963182 C148.63492106 238.74283316 145.41354777 238.09541303 140.93994141 234.2746582 C137.93994141 230.8746582 137.93994141 230.8746582 137.93994141 228.2746582 C137.27994141 228.2746582 136.61994141 228.2746582 135.93994141 228.2746582 C135.68825195 227.65010742 135.4365625 227.02555664 135.17724609 226.38208008 C134.01820091 223.51155753 132.85410836 220.64310718 131.68994141 217.7746582 C131.29419922 216.79239258 130.89845703 215.81012695 130.49072266 214.7980957 C128.44871078 209.77675503 126.29421825 204.89957138 123.81542969 200.08032227 C122.453931 197.27227868 121.48922322 194.35658917 120.50244141 191.3996582 C119.06209586 187.24988216 117.56911553 183.33717219 115.50244141 179.4621582 C112.80269592 174.34195125 111.0350109 168.9957189 109.17724609 163.53125 C107.47979461 158.6102834 105.46244251 154.05298307 103.01806641 149.45043945 C101.95757864 147.31025218 101.2086894 145.24103982 100.50244141 142.9621582 C99.32343518 139.16535848 97.77305193 135.67723274 96.06494141 132.0871582 C93.91884824 127.54653252 92.07707452 123.02234425 90.43994141 118.2746582 C88.4372894 112.47852114 86.02977336 107.0110658 83.40478516 101.47387695 C81.49922503 97.31213364 79.89366919 93.06542442 78.28369141 88.7824707 C76.75539759 84.792913 75.13873004 80.84584465 73.50244141 76.8996582 C71.23741053 71.43426689 69.00149533 65.95943458 66.81494141 60.4621582 C63.74414747 52.76080197 60.60577673 45.09129694 57.29541016 37.48950195 C57.01826172 36.85085205 56.74111328 36.21220215 56.45556641 35.55419922 C55.6659435 33.73820622 54.87142613 31.92434374 54.07666016 30.1105957 C52.93994141 27.2746582 52.93994141 27.2746582 52.93994141 25.2746582 C32.14994141 25.2746582 11.35994141 25.2746582 -10.06005859 25.2746582 C-10.72005859 23.9546582 -11.38005859 22.6346582 -12.06005859 21.2746582 C-12.72005859 21.2746582 -13.38005859 21.2746582 -14.06005859 21.2746582 C-16.14786997 17.09903545 -15.50333726 11.82281879 -15.06005859 7.2746582 C-11.43735641 0.80554716 -7.05741095 0.02560622 0 0 Z " fill="#131313" transform="translate(15.06005859375,92.725341796875)"/>
<path d="M0 0 C1.3740525 -0.00346019 2.74810223 -0.00822718 4.12214619 -0.01418173 C7.88349608 -0.02667198 11.64461678 -0.02053043 15.40596735 -0.01122308 C19.46808377 -0.00442473 23.53016126 -0.01491775 27.5922699 -0.02316284 C35.54452315 -0.03649434 43.49669139 -0.03362493 51.44894796 -0.02492492 C57.91321831 -0.01814602 64.37746486 -0.01723255 70.84173775 -0.02049637 C72.22250705 -0.02118592 72.22250705 -0.02118592 73.63117068 -0.0218894 C75.50126783 -0.02284859 77.37136498 -0.02382123 79.24146212 -0.02480717 C96.77285216 -0.03335948 114.30419512 -0.02352967 131.83557744 -0.00740607 C146.87177756 0.00599473 161.90790819 0.00367067 176.94410706 -0.01016235 C194.4117998 -0.02622482 211.87945129 -0.03253317 229.34715039 -0.02332556 C231.21062123 -0.02236993 233.07409208 -0.02142682 234.93756294 -0.02049637 C235.85438535 -0.02003354 236.77120776 -0.01957072 237.71581266 -0.01909386 C244.1703077 -0.01650581 250.62477652 -0.02087104 257.0792675 -0.02793503 C264.94810897 -0.03635772 272.81686067 -0.0340538 280.68569189 -0.0180928 C284.69896575 -0.01022009 288.71209009 -0.00710133 292.72536278 -0.01704025 C296.40240933 -0.02600861 300.07916836 -0.02101933 303.756189 -0.0051076 C305.70961836 -0.00019252 307.66306783 -0.00993721 309.616476 -0.02027929 C316.94959309 0.02863024 324.52066859 0.1830406 330.45655823 5.00595093 C333.4051072 12.00875473 332.5516302 17.53243394 329.75343323 24.45126343 C327.92172636 28.58915544 326.02679044 32.69409472 324.09718323 36.78720093 C322.25589715 40.82049425 320.56320531 44.89923291 318.89405823 49.00595093 C316.62553274 54.58736108 314.25002442 60.08816229 311.71046448 65.55282593 C309.87016311 69.70353679 308.22295919 73.92898154 306.59889221 78.16854858 C305.17662343 81.81996423 303.47345226 85.03376508 301.45655823 88.38095093 C300.62388061 90.40623779 299.83436109 92.44963706 299.08155823 94.50595093 C297.14591729 99.65800121 295.02050124 104.65315617 292.70265198 109.64266968 C291.40729907 112.48919755 290.20596182 115.36263641 289.01905823 118.25595093 C286.76197351 123.7313394 284.31713407 129.10222909 281.79249573 134.45907593 C280.73503815 136.77187789 279.82321384 139.057599 278.95655823 141.44345093 C276.98302851 145.30827996 275.41188926 146.58307318 271.45655823 148.38095093 C266.86943837 149.02785245 262.88637852 148.89811997 258.51905823 147.31845093 C255.72488342 144.69362005 254.26217459 142.08488742 253.45655823 138.38095093 C253.31560395 131.41730017 255.73240679 125.7316664 258.70655823 119.56845093 C259.53327328 117.79687231 260.3588014 116.0247393 261.18312073 114.25204468 C261.77721741 112.98723267 261.77721741 112.98723267 262.38331604 111.6968689 C263.69268672 108.87141614 264.90329621 106.01334358 266.08155823 103.13095093 C268.25858251 97.81600889 270.55664611 92.56008931 272.87110901 87.30404663 C274.61745455 83.32847533 276.31211212 79.33760703 277.95655823 75.31845093 C279.82090286 70.79250904 281.85665787 66.36367388 283.95655823 61.94345093 C286.6062469 56.36027947 288.90241796 50.72370041 291.05226135 44.92611694 C292.59514473 41.03108748 294.32092934 37.25960681 296.11280823 33.47470093 C296.43539612 32.78859741 296.75798401 32.1024939 297.09034729 31.39559937 C297.87706393 29.72309806 298.66652465 28.05188798 299.45655823 26.38095093 C298.79019014 26.38246981 298.12382205 26.38398869 297.43726099 26.3855536 C257.95598085 26.47503685 218.47471378 26.54368246 178.99335279 26.58521225 C174.25436251 26.59021516 169.51537243 26.59539244 164.77638245 26.60067749 C163.36119184 26.60225135 163.36119184 26.60225135 161.91741152 26.60385701 C146.63456445 26.62126934 131.35177748 26.65281159 116.06896608 26.68956211 C100.39114881 26.7269485 84.71336305 26.7491819 69.03550303 26.75730491 C59.35889389 26.76279746 49.68245459 26.78015449 40.00589772 26.8126168 C33.37321703 26.83373626 26.74062435 26.8401568 20.10791247 26.83495644 C16.27929882 26.83239064 12.45098228 26.83636499 8.62242126 26.85777283 C4.47297478 26.88080573 0.32416308 26.87291566 -3.82533264 26.86196899 C-5.64342656 26.87944604 -5.64342656 26.87944604 -7.49824965 26.89727616 C-13.80331781 26.85214736 -17.79341081 26.70587109 -22.54344177 22.38095093 C-24.89469881 19.48106725 -25.49929018 17.72154896 -25.98094177 14.00595093 C-25.44541519 9.56873065 -24.4716674 6.75261949 -21.54344177 3.38095093 C-14.48704937 -0.19931486 -7.7959162 -0.04120182 0 0 Z " fill="#0F0F0F" transform="translate(164.54344177246094,144.61904907226563)"/>
<path d="M0 0 C1.74686514 1.44144309 3.32449719 2.9439642 4.89453125 4.57421875 C5.63703125 5.27546875 6.37953125 5.97671875 7.14453125 6.69921875 C12.3047036 15.17664476 12.74293148 25.01604387 10.89453125 34.57421875 C9.80947917 37.73312037 8.5157714 40.65598647 6.89453125 43.57421875 C6.23453125 43.57421875 5.57453125 43.57421875 4.89453125 43.57421875 C4.66765625 44.15171875 4.44078125 44.72921875 4.20703125 45.32421875 C0.70689113 51.32445895 -5.75918557 53.61011359 -12.10546875 55.57421875 C-21.06959343 57.63110317 -28.61437376 55.802341 -36.48046875 51.19921875 C-39.65929811 49.06927438 -42.00301766 46.81549751 -44.10546875 43.57421875 C-44.10546875 42.91421875 -44.10546875 42.25421875 -44.10546875 41.57421875 C-44.76546875 41.57421875 -45.42546875 41.57421875 -46.10546875 41.57421875 C-49.86744497 32.89144327 -52.06093298 24.63498132 -48.91796875 15.38671875 C-47.12005815 11.25152438 -44.94055212 7.092342 -42.10546875 3.57421875 C-41.44546875 3.57421875 -40.78546875 3.57421875 -40.10546875 3.57421875 C-40.10546875 2.91421875 -40.10546875 2.25421875 -40.10546875 1.57421875 C-38.3810651 0.58668811 -36.65071849 -0.39046931 -34.91796875 -1.36328125 C-33.47357422 -2.18119141 -33.47357422 -2.18119141 -32 -3.015625 C-21.87848578 -7.94661911 -9.1854254 -6.22018603 0 0 Z " fill="#282828" transform="translate(415.10546875,352.42578125)"/>
<path d="M0 0 C3.38464589 2.69526964 6.36927443 5.55879836 9 9 C9 9.66 9 10.32 9 11 C9.66 11 10.32 11 11 11 C12.78883948 16.39513988 13.38457678 21.20195748 13.375 26.875 C13.37693359 28.06101807 13.37693359 28.06101807 13.37890625 29.27099609 C13.26845969 35.36187312 12.14052366 39.70036632 9 45 C8.34 45 7.68 45 7 45 C6.773125 45.5775 6.54625 46.155 6.3125 46.75 C2.80695205 52.75951077 -3.66038858 54.99751795 -10 57 C-17.3566838 58.73908001 -24.73245076 58.22073095 -31.4921875 54.703125 C-35.72367787 52.01161965 -39.26285886 49.28422092 -42 45 C-42 44.34 -42 43.68 -42 43 C-42.66 43 -43.32 43 -44 43 C-48.16032227 34.7722198 -49.72415884 26.5599653 -47.33984375 17.48828125 C-43.72561758 8.52312282 -38.22302141 1.92049547 -29.4296875 -2.125 C-19.59615154 -5.66633771 -9.2795845 -4.70811583 0 0 Z " fill="#282828" transform="translate(137,351)"/>
<path d="M0 0 C-1.39253532 3.48133831 -2.63176216 4.47886033 -6 6 C-6.33 6.66 -6.66 7.32 -7 8 C-6.44414399 4.1090079 -4.34122117 0 0 0 Z " fill="#7C7C7C" transform="translate(147,147)"/>
<path d="M0 0 C5.94 1.485 5.94 1.485 12 3 C12 3.33 12 3.66 12 4 C3.42857143 4.28571429 3.42857143 4.28571429 0 2 C0 1.34 0 0.68 0 0 Z " fill="#1C1C1C" transform="translate(108,403)"/>
<path d="M0 0 C2 1 2 1 2 1 Z " fill="#FFFFFF" transform="translate(252,334)"/>
<path d="" fill="#FFFFFF" transform="translate(0,0)"/>
<path d="" fill="#FFFFFF" transform="translate(0,0)"/>
<path d="" fill="#FFFFFF" transform="translate(0,0)"/>
<path d="" fill="#FFFFFF" transform="translate(0,0)"/>
<path d="" fill="#FFFFFF" transform="translate(0,0)"/>
<path d="" fill="#FFFFFF" transform="translate(0,0)"/>
<path d="" fill="#FFFFFF" transform="translate(0,0)"/>
<path d="" fill="#FFFFFF" transform="translate(0,0)"/>
<path d="" fill="#FFFFFF" transform="translate(0,0)"/>
<path d="" fill="#FFFFFF" transform="translate(0,0)"/>
<path d="" fill="#FFFFFF" transform="translate(0,0)"/>
<path d="" fill="#FFFFFF" transform="translate(0,0)"/>
<path d="" fill="#FFFFFF" transform="translate(0,0)"/>
<path d="" fill="#FFFFFF" transform="translate(0,0)"/>
<path d="" fill="#FFFFFF" transform="translate(0,0)"/>
<path d="" fill="#FFFFFF" transform="translate(0,0)"/>
<path d="" fill="#FFFFFF" transform="translate(0,0)"/>
<path d="" fill="#FFFFFF" transform="translate(0,0)"/>
<path d="" fill="#FFFFFF" transform="translate(0,0)"/>
<path d="" fill="#FFFFFF" transform="translate(0,0)"/>
<path d="" fill="#FFFFFF" transform="translate(0,0)"/>
<path d="" fill="#FFFFFF" transform="translate(0,0)"/>
<path d="" fill="#FFFFFF" transform="translate(0,0)"/>
<path d="" fill="#FFFFFF" transform="translate(0,0)"/>
<path d="" fill="#FFFFFF" transform="translate(0,0)"/>
<path d="" fill="#FFFFFF" transform="translate(0,0)"/>
<path d="" fill="#FFFFFF" transform="translate(0,0)"/>
<path d="" fill="#FFFFFF" transform="translate(0,0)"/>
<path d="" fill="#FFFFFF" transform="translate(0,0)"/>
<path d="" fill="#FFFFFF" transform="translate(0,0)"/>
<path d="" fill="#FFFFFF" transform="translate(0,0)"/>
<path d="" fill="#FFFFFF" transform="translate(0,0)"/>
<path d="" fill="#FFFFFF" transform="translate(0,0)"/>
<path d="" fill="#FFFFFF" transform="translate(0,0)"/>
<path d="" fill="#FFFFFF" transform="translate(0,0)"/>
<path d="" fill="#FFFFFF" transform="translate(0,0)"/>
<path d="" fill="#FFFFFF" transform="translate(0,0)"/>
<path d="" fill="#FFFFFF" transform="translate(0,0)"/>
<path d="" fill="#FFFFFF" transform="translate(0,0)"/>
<path d="" fill="#FFFFFF" transform="translate(0,0)"/>
<path d="" fill="#FFFFFF" transform="translate(0,0)"/>
<path d="" fill="#FFFFFF" transform="translate(0,0)"/>
<path d="" fill="#FFFFFF" transform="translate(0,0)"/>
<path d="" fill="#FFFFFF" transform="translate(0,0)"/>
<path d="" fill="#FFFFFF" transform="translate(0,0)"/>
<path d="" fill="#FFFFFF" transform="translate(0,0)"/>
<path d="" fill="#FFFFFF" transform="translate(0,0)"/>
<path d="" fill="#FFFFFF" transform="translate(0,0)"/>
<path d="" fill="#FFFFFF" transform="translate(0,0)"/>
<path d="" fill="#FFFFFF" transform="translate(0,0)"/>
<path d="" fill="#FFFFFF" transform="translate(0,0)"/>
<path d="" fill="#FFFFFF" transform="translate(0,0)"/>
<path d="" fill="#FFFFFF" transform="translate(0,0)"/>
<path d="" fill="#FFFFFF" transform="translate(0,0)"/>
<path d="" fill="#FFFFFF" transform="translate(0,0)"/>
<path d="" fill="#FFFFFF" transform="translate(0,0)"/>
<path d="" fill="#FFFFFF" transform="translate(0,0)"/>
<path d="" fill="#FFFFFF" transform="translate(0,0)"/>
<path d="" fill="#FFFFFF" transform="translate(0,0)"/>
<path d="" fill="#FFFFFF" transform="translate(0,0)"/>
<path d="" fill="#FFFFFF" transform="translate(0,0)"/>
<path d="" fill="#FFFFFF" transform="translate(0,0)"/>
<path d="" fill="#FFFFFF" transform="translate(0,0)"/>
<path d="" fill="#FFFFFF" transform="translate(0,0)"/>
<path d="" fill="#FFFFFF" transform="translate(0,0)"/>
<path d="" fill="#FFFFFF" transform="translate(0,0)"/>
<path d="" fill="#FFFFFF" transform="translate(0,0)"/>
<path d="" fill="#FFFFFF" transform="translate(0,0)"/>
<path d="" fill="#FFFFFF" transform="translate(0,0)"/>
<path d="" fill="#FFFFFF" transform="translate(0,0)"/>
</svg>
