<?xml version="1.0" encoding="UTF-8"?>
<svg version="1.1" xmlns="http://www.w3.org/2000/svg" width="1000" height="1000">
<path d="M0 0 C0.84854553 -0.00626404 1.69709106 -0.01252808 2.5713501 -0.01898193 C14.28722621 -0.07360074 25.28916414 1.02272455 36.75 3.4375 C37.80799805 3.65003418 38.86599609 3.86256836 39.95605469 4.08154297 C54.04390451 7.01893091 68.18528559 13.56318817 80.75 20.4375 C81.53632813 20.8603125 82.32265625 21.283125 83.1328125 21.71875 C88.68781359 24.87208395 93.81272809 28.57665347 98.9375 32.375 C99.60297852 32.86500488 100.26845703 33.35500977 100.95410156 33.85986328 C105.61812265 37.37469369 109.70214732 41.23626803 113.75 45.4375 C114.62398438 46.30632812 115.49796875 47.17515625 116.3984375 48.0703125 C147.239229 79.11602621 164.18068861 118.35532063 164.07336426 162.29779053 C164.06798645 163.48069672 164.06798645 163.48069672 164.0625 164.6875 C164.06100952 165.50043518 164.05951904 166.31337036 164.0579834 167.15093994 C164.0184096 179.16217738 163.49968744 190.7007389 160.75 202.4375 C160.48316406 203.68789063 160.21632813 204.93828125 159.94140625 206.2265625 C155.16090614 226.41089631 145.38164908 245.53231417 133.25463867 262.2487793 C130.45440796 265.96040564 130.45440796 265.96040564 129.75 270.4375 C132.8339868 275.15693434 137.22394094 278.80046211 141.4765625 282.42578125 C147.35522151 287.62768742 152.9793571 293.26832173 158.0625 299.25 C161.49773589 303.20672953 165.02096053 307.0719322 168.625 310.875 C169.19001221 311.50317627 169.75502441 312.13135254 170.3371582 312.77856445 C174.90376798 317.51135079 178.31753186 318.21218276 184.75 318.4375 C191.43207363 319.80490934 196.17466384 322.48473823 201.14306641 327.14306641 C201.65438425 327.62143763 202.1657021 328.09980885 202.69251442 328.59267616 C208.9431569 334.48633221 215.00270009 340.57798241 221.05830002 346.67063522 C223.20075901 348.82607604 225.34651772 350.97818561 227.49307251 353.12954712 C232.03990508 357.68768908 236.58274156 362.24980044 241.125 366.8125 C246.4154737 372.12666155 251.70761949 377.4391364 257.00398636 382.74742508 C259.10982325 384.85970511 261.2126093 386.97498957 263.3152771 389.09042358 C264.61026398 390.38904389 265.90539197 391.6875235 267.20068359 392.98583984 C267.77740814 393.56773071 268.35413269 394.14962158 268.94833374 394.74914551 C271.52693964 397.32808419 274.12289673 399.79425411 276.94804382 402.10261536 C279.28945739 404.05372745 281.19275068 405.91625665 283.13061523 408.24731445 C286.78528104 412.52566216 290.67696576 416.50898471 294.66015625 420.48046875 C295.3906871 421.21195633 296.12121796 421.94344391 296.87388611 422.69709778 C298.40631424 424.2302015 299.93998621 425.76206287 301.47485352 427.29272461 C303.8131682 429.62566666 306.14607542 431.96392072 308.47851562 434.30273438 C309.97624186 435.79980002 311.47427815 437.29655555 312.97265625 438.79296875 C314.00882835 439.8321772 314.00882835 439.8321772 315.06593323 440.89237976 C317.89784298 443.71071616 320.69471905 446.39256957 323.79858398 448.9152832 C326.06636795 450.85328272 327.8023497 452.57903938 329.70458984 454.82348633 C335.56095127 461.6751476 342.09537329 467.90504509 348.4765625 474.26171875 C349.91211542 475.69540284 351.34744494 477.12931066 352.78256226 478.56343079 C356.54307419 482.32014498 360.30657779 486.07384784 364.07073975 489.8269043 C367.89793017 493.64385589 371.72228738 497.46364384 375.546875 501.28320312 C381.72290607 507.45047012 387.90064137 513.61602361 394.08067322 519.77928162 C398.62557293 524.31210043 403.16659179 528.84871477 407.69482422 533.39819336 C411.78678352 537.50805355 415.88187724 541.61477586 419.97802734 545.72045898 C421.73999558 547.48746513 423.50106649 549.2553665 425.26123047 551.02416992 C427.81499641 553.59011941 430.37202599 556.15277794 432.9296875 558.71484375 C433.70907684 559.49939438 434.48846619 560.28394501 435.29147339 561.0922699 C439.17846139 564.97965244 443.10947637 568.72174169 447.3400116 572.23443604 C449.13725686 573.76792454 450.67049921 575.44141983 452.1875 577.25 C454.04259253 579.44428552 455.90293188 581.60145655 457.86328125 583.703125 C463.59887736 589.86862868 467.16865632 595.24990191 467.875 603.84375 C467.49882089 611.64946663 464.85646384 619.47872152 459.3125 625.078125 C453.38603648 630.23414826 448.0653746 631.94896703 440.4375 632.8125 C433.42697712 632.09956547 426.56155172 629.43425307 420.75 625.4375 C420.75 624.7775 420.75 624.1175 420.75 623.4375 C420.193125 623.210625 419.63625 622.98375 419.0625 622.75 C416.09698625 621.06687057 414.13890463 618.87445731 411.75 616.4375 C410.78734993 615.49385068 409.82247338 614.55246772 408.85546875 613.61328125 C407.88278804 612.6588791 406.91013192 611.70445188 405.9375 610.75 C405.43541016 610.26466797 404.93332031 609.77933594 404.41601562 609.27929688 C403.15582727 608.03625394 401.94808956 606.74050108 400.75 605.4375 C400.75 604.7775 400.75 604.1175 400.75 603.4375 C399.76 603.1075 398.77 602.7775 397.75 602.4375 C396.1875 601 396.1875 601 394.75 599.4375 C394.09 598.7775 393.43 598.1175 392.75 597.4375 C392.21375 596.715625 391.6775 595.99375 391.125 595.25 C389.2194745 592.99345664 387.47617809 591.26863697 385.25 589.375 C378.45388837 583.57344129 372.31942433 577.05334748 366.046875 570.69921875 C363.73312505 568.42088334 361.29004755 566.45651215 358.75 564.4375 C356.10435405 562.01232454 354.89586922 560.87510767 353.75 557.4375 C352.42151309 556.43107052 351.08849671 555.43057821 349.75 554.4375 C349.75 553.7775 349.75 553.1175 349.75 552.4375 C348.76 552.1075 347.77 551.7775 346.75 551.4375 C345.05911778 549.45793058 343.39169528 547.45804804 341.75 545.4375 C341.09 545.1075 340.43 544.7775 339.75 544.4375 C339.75 543.7775 339.75 543.1175 339.75 542.4375 C339.09 542.4375 338.43 542.4375 337.75 542.4375 C337.75 541.7775 337.75 541.1175 337.75 540.4375 C337.21375 540.210625 336.6775 539.98375 336.125 539.75 C330.44912757 536.61333366 326.54916364 532.15008397 322.40234375 527.27734375 C320.71529983 525.29797467 320.71529983 525.29797467 318.25 523.4375 C315.36779261 521.13173409 313.18073701 518.54015949 310.796875 515.734375 C307.60754688 512.15551062 304.14349669 508.86253556 300.69140625 505.5390625 C298.75 503.4375 298.75 503.4375 298.75 501.4375 C297.8535376 501.03108276 297.8535376 501.03108276 296.93896484 500.61645508 C294.77812475 499.45264771 293.42156393 498.32800799 291.7265625 496.57421875 C291.18 496.01669922 290.6334375 495.45917969 290.0703125 494.88476562 C289.51085937 494.30404297 288.95140625 493.72332031 288.375 493.125 C285.20681636 489.85688533 282.07987039 486.63907278 278.546875 483.76171875 C276.1826443 481.79702983 274.30904952 479.92851997 272.375 477.5625 C269.99375591 474.76165343 267.55698414 472.31097307 264.75 469.9375 C261.26054522 466.98125011 258.30780455 463.7863008 255.359375 460.296875 C253.91106642 458.62358645 252.41155886 457.08969104 250.8125 455.5625 C248.75 453.4375 248.75 453.4375 248.75 451.4375 C248.19183594 451.20675781 247.63367188 450.97601562 247.05859375 450.73828125 C244.13710799 449.09216491 242.14945334 447.02676868 239.8125 444.625 C238.97847656 443.77292969 238.14445312 442.92085937 237.28515625 442.04296875 C236.03025391 440.75326172 236.03025391 440.75326172 234.75 439.4375 C233.08492417 437.76924401 231.41802401 436.10280822 229.75 434.4375 C172.75 377.4375 172.75 377.4375 170.02355957 374.70666504 C168.57748828 373.26338883 167.1214299 371.82999929 165.65234375 370.41015625 C165.00394531 369.77980469 164.35554688 369.14945313 163.6875 368.5 C163.03652344 367.87222656 162.38554688 367.24445313 161.71484375 366.59765625 C156.87392793 361.27553608 155.17100042 357.24463946 154.6875 350.25 C154.50028423 345.05019749 154.50028423 345.05019749 152.19140625 340.57421875 C151.71574219 340.19910156 151.24007813 339.82398438 150.75 339.4375 C150.75 338.7775 150.75 338.1175 150.75 337.4375 C149.76 337.1075 148.77 336.7775 147.75 336.4375 C146.35546875 334.984375 146.35546875 334.984375 144.9375 333.1875 C142.13264073 329.78556673 139.17509481 327.20672559 135.75 324.4375 C134.06828914 322.7840796 132.40725931 321.11519438 130.75 319.4375 C129.26119508 317.94713866 127.77152489 316.45764145 126.28125 314.96875 C116.21875 304.90625 116.21875 304.90625 113.86328125 302.54296875 C112.60046526 301.28482122 111.32967373 300.03448694 110.04296875 298.80078125 C108.91144449 297.71388048 107.82367578 296.58158075 106.75 295.4375 C106.75 294.7775 106.75 294.1175 106.75 293.4375 C101.84076795 294.7783798 98.59039735 296.8408663 94.625 300 C88.84214291 304.59832784 88.84214291 304.59832784 84.75 305.4375 C84.42 306.0975 84.09 306.7575 83.75 307.4375 C81.26820481 308.80248735 78.79566365 310.07798846 76.25 311.3125 C75.51531494 311.67255127 74.78062988 312.03260254 74.02368164 312.40356445 C71.93589335 313.42217237 69.84364171 314.43099283 67.75 315.4375 C66.91339844 315.84613281 66.07679688 316.25476563 65.21484375 316.67578125 C46.7143713 325.33785217 26.06692101 328.89627055 5.75 329.4375 C5.02296875 329.47391602 4.2959375 329.51033203 3.546875 329.54785156 C-40.54140639 331.7194184 -77.58940888 314.96188088 -110.77734375 287.48046875 C-112.44830742 286.09987791 -114.14062438 284.74479215 -115.8515625 283.4140625 C-118.05092815 281.60155595 -119.84713429 279.79195339 -121.6875 277.625 C-124.16062182 274.70432623 -124.16062182 274.70432623 -126.71484375 271.85546875 C-140.68436063 256.5702633 -150.62189566 235.85992421 -157.25 216.4375 C-157.600625 215.57382812 -157.95125 214.71015625 -158.3125 213.8203125 C-172.04058364 178.92809991 -167.44281737 135.27166196 -153.25 101.4375 C-150.79296872 95.99252687 -148.05131469 90.7112794 -145.25 85.4375 C-144.71890625 84.32117188 -144.1878125 83.20484375 -143.640625 82.0546875 C-142.25 79.4375 -142.25 79.4375 -140.25 78.4375 C-139.96511719 77.53773438 -139.68023437 76.63796875 -139.38671875 75.7109375 C-138.12747522 72.08466232 -136.54239285 69.97349298 -134.0625 67.0625 C-133.25683594 66.10988281 -132.45117188 65.15726562 -131.62109375 64.17578125 C-130.83863281 63.27214844 -130.05617187 62.36851562 -129.25 61.4375 C-128.62222656 60.70917969 -127.99445313 59.98085938 -127.34765625 59.23046875 C-126.21055419 57.92318815 -125.06613403 56.62223274 -123.9140625 55.328125 C-122.80327943 54.06610856 -121.71446928 52.78441376 -120.6484375 51.484375 C-115.08782355 44.79055537 -108.29093506 38.01543363 -100.25 34.4375 C-100.25 33.7775 -100.25 33.1175 -100.25 32.4375 C-83.19862064 19.22491285 -61.90573442 10.28138998 -41.25 4.4375 C-40.52731934 4.22577148 -39.80463867 4.01404297 -39.06005859 3.79589844 C-26.20869239 0.20377792 -13.24584112 0.04594918 0 0 Z M-89.25 69.1875 C-91.44148855 71.35543348 -91.44148855 71.35543348 -92.25 74.4375 C-94.3125 75.625 -94.3125 75.625 -96.25 76.4375 C-96.25 77.0975 -96.25 77.7575 -96.25 78.4375 C-97.24 78.7675 -98.23 79.0975 -99.25 79.4375 C-100.90430407 81.25604004 -102.3948293 83.04723951 -103.875 85 C-104.31158936 85.57282715 -104.74817871 86.1456543 -105.19799805 86.73583984 C-110.26494827 93.56310033 -114.34270066 100.90184869 -118.25 108.4375 C-118.99056641 109.85482422 -118.99056641 109.85482422 -119.74609375 111.30078125 C-134.20017586 140.97442645 -134.53995364 176.48111295 -124.25 207.4375 C-118.75073198 222.58610477 -110.88459045 236.31406689 -100.25 248.4375 C-99.66476562 249.13230469 -99.07953125 249.82710937 -98.4765625 250.54296875 C-90.33994117 261.36412676 -90.33994117 261.36412676 -79.25 267.4375 C-79.25 268.0975 -79.25 268.7575 -79.25 269.4375 C-66.5083929 279.42562421 -50.52419891 285.57209855 -35.25 290.4375 C-34.06760742 290.82832764 -34.06760742 290.82832764 -32.86132812 291.22705078 C-1.43832029 301.24695542 33.1674811 294.06941477 61.86694336 279.58837891 C72.29903604 274.16868419 81.29200904 267.59200611 89.75 259.4375 C90.66910156 258.55835938 91.58820313 257.67921875 92.53515625 256.7734375 C103.81125282 245.76101856 112.21288398 234.61050975 117.82421875 219.80859375 C118.68528269 217.60325277 119.66053009 215.50667859 120.6875 213.375 C125.59561706 202.41418523 128.50577758 190.34244638 129.75 178.4375 C129.8840625 177.20773437 130.018125 175.97796875 130.15625 174.7109375 C131.38490762 160.55345081 129.58701171 147.24129822 126.375 133.4375 C126.17825684 132.58969971 125.98151367 131.74189941 125.77880859 130.8684082 C119.28331209 104.52269502 103.42845158 79.68871617 81.75 63.4375 C80.78191406 62.67824219 79.81382812 61.91898437 78.81640625 61.13671875 C64.0348905 49.69978524 48.53266323 42.65155249 30.75 37.4375 C29.62078125 37.08042969 28.4915625 36.72335937 27.328125 36.35546875 C-13.1841212 25.96204314 -59.53245576 40.82460165 -89.25 69.1875 Z " fill="#070707" transform="translate(384.25,221.5625)"/>
<path d="M0 0 C3.6851045 3.0521667 7.17991853 6.09882095 10.4296875 9.61328125 C10.99816406 10.22107422 11.56664062 10.82886719 12.15234375 11.45507812 C13.30697902 12.70004201 14.44759337 13.95814838 15.57421875 15.22851562 C20.14878474 20.04575046 23.49569304 20.78588212 30 21 C36.68207363 22.36740934 41.42466384 25.04723823 46.39306641 29.70556641 C46.90438425 30.18393763 47.4157021 30.66230885 47.94251442 31.15517616 C54.1931569 37.04883221 60.25270009 43.14048241 66.30830002 49.23313522 C68.45075901 51.38857604 70.59651772 53.54068561 72.74307251 55.69204712 C77.28990508 60.25018908 81.83274156 64.81230044 86.375 69.375 C91.6654737 74.68916155 96.95761949 80.0016364 102.25398636 85.30992508 C104.35982325 87.42220511 106.4626093 89.53748957 108.5652771 91.65292358 C109.86026398 92.95154389 111.15539197 94.2500235 112.45068359 95.54833984 C113.02740814 96.13023071 113.60413269 96.71212158 114.19833374 97.31164551 C116.77693964 99.89058419 119.37289673 102.35675411 122.19804382 104.66511536 C124.53945739 106.61622745 126.44275068 108.47875665 128.38061523 110.80981445 C132.03528104 115.08816216 135.92696576 119.07148471 139.91015625 123.04296875 C140.6406871 123.77445633 141.37121796 124.50594391 142.12388611 125.25959778 C143.65631424 126.7927015 145.18998621 128.32456287 146.72485352 129.85522461 C149.0631682 132.18816666 151.39607542 134.52642072 153.72851562 136.86523438 C155.22624186 138.36230002 156.72427815 139.85905555 158.22265625 141.35546875 C159.25882835 142.3946772 159.25882835 142.3946772 160.31593323 143.45487976 C163.14784298 146.27321616 165.94471905 148.95506957 169.04858398 151.4777832 C171.31636795 153.41578272 173.0523497 155.14153938 174.95458984 157.38598633 C180.81095127 164.2376476 187.34537329 170.46754509 193.7265625 176.82421875 C195.16211542 178.25790284 196.59744494 179.69181066 198.03256226 181.12593079 C201.79307419 184.88264498 205.55657779 188.63634784 209.32073975 192.3894043 C213.14793017 196.20635589 216.97228738 200.02614384 220.796875 203.84570312 C226.97290607 210.01297012 233.15064137 216.17852361 239.33067322 222.34178162 C243.87557293 226.87460043 248.41659179 231.41121477 252.94482422 235.96069336 C257.03678352 240.07055355 261.13187724 244.17727586 265.22802734 248.28295898 C266.98999558 250.04996513 268.75106649 251.8178665 270.51123047 253.58666992 C273.06499641 256.15261941 275.62202599 258.71527794 278.1796875 261.27734375 C279.34877151 262.45416969 279.34877151 262.45416969 280.54147339 263.6547699 C284.42469845 267.53838912 288.35089685 271.27670022 292.57971191 274.78320312 C294.45654168 276.39113085 296.04423766 278.16636389 297.625 280.0625 C300.2922467 283.19937479 303.04470947 286.13426373 306 289 C305.67 289.66 305.34 290.32 305 291 C304.4546219 290.45386246 303.9092438 289.90772492 303.34733909 289.34503776 C271.02804784 256.98099627 238.7035416 224.62217146 206.3722493 192.27011864 C202.49072253 188.38609044 198.60923939 184.50201866 194.7277832 180.61791992 C193.95505015 179.84466225 193.1823171 179.07140457 192.38616789 178.27471485 C179.87214239 165.7519853 167.36165445 153.22572737 154.8524689 140.69816331 C142.01806879 127.84506416 129.17987762 114.99576088 116.33815485 102.14997786 C108.41342614 94.22250411 100.49167388 86.29207984 92.57369608 78.35786315 C87.144729 72.91832916 81.7120859 67.48248462 76.27653372 62.04953096 C73.14002802 58.914307 70.00517257 55.77747814 66.87467003 52.63625908 C64.00735951 49.75920485 61.13545149 46.88682393 58.25985248 44.01805469 C57.2216448 42.98069095 56.18512046 41.94163911 55.15048193 40.90071557 C44.74178949 29.6420642 44.74178949 29.6420642 30.75390625 24.98046875 C22.33287845 24.83595813 18.67068338 20.84865062 13 15 C11.82997417 13.85744114 10.65661605 12.71828769 9.48046875 11.58203125 C8.27749827 10.4100309 7.07566548 9.23686161 5.875 8.0625 C5.29387451 7.49499023 4.71274902 6.92748047 4.11401367 6.34277344 C2.7032905 4.93353681 1.34635218 3.4708581 0 2 C0 1.34 0 0.68 0 0 Z " fill="#D2D2D2" transform="translate(539,519)"/>
<path d="M0 0 C0.33 0 0.66 0 1 0 C1.28686449 4.30296734 0.90481575 7.62757841 -0.375 11.75 C-7.07080868 35.32813198 -5.94172772 62.70808789 -0.09375 86.21875 C0.81850925 89.89629509 1.2542176 93.18673602 1 97 C1.66 97 2.32 97 3 97 C3.26554688 97.84304688 3.53109375 98.68609375 3.8046875 99.5546875 C5.49360956 104.42275697 7.64658085 109.06057462 9.7578125 113.7578125 C11 117 11 117 11 121 C11.66 121 12.32 121 13 121 C13 122.32 13 123.64 13 125 C13.66 125 14.32 125 15 125 C15 126.65 15 128.3 15 130 C4.21345855 116.30436101 -0.51841478 98.78791779 -4 82 C-4.25007812 80.845 -4.50015625 79.69 -4.7578125 78.5 C-10.05998495 53.10368917 -8.93680979 24.53633046 0 0 Z " fill="#A4A4A4" transform="translate(226,337)"/>
<path d="M0 0 C0.84854553 -0.00626404 1.69709106 -0.01252808 2.5713501 -0.01898193 C14.28289747 -0.07358056 25.29589736 1.00177305 36.75 3.4375 C37.85021484 3.67114258 38.95042969 3.90478516 40.08398438 4.14550781 C48.60008152 6.03221652 56.64965154 9.26109432 64.75 12.4375 C64.75 12.7675 64.75 13.0975 64.75 13.4375 C60.37090431 13.810189 57.59740218 13.54747118 53.64453125 11.5859375 C48.67149999 9.29374044 43.71168126 7.97948105 38.375 6.8125 C37.41819336 6.60085205 36.46138672 6.3892041 35.47558594 6.17114258 C10.58848578 0.87553319 -15.66329765 0.3763772 -40.25 7.4375 C-42.23958649 8.00595328 -44.23014282 8.56978614 -46.22387695 9.12353516 C-48.15223625 9.66028777 -50.07625877 10.2125494 -52 10.765625 C-54.99746855 11.38529398 -56.45230676 11.52860036 -59.25 10.4375 C-39.37529311 3.15738759 -21.1429205 0.07334377 0 0 Z " fill="#B0B0B0" transform="translate(384.25,221.5625)"/>
<path d="M0 0 C0.99 0.33 1.98 0.66 3 1 C3.53625 2.134375 4.0725 3.26875 4.625 4.4375 C10.65087925 17.04750825 24.17936137 27.30799235 33.94140625 37.0390625 C35.67754172 38.77332986 37.41345429 40.50782038 39.14915466 42.24252319 C43.68915932 46.77873359 48.23216042 51.31193122 52.77581787 55.84448242 C57.4233421 60.48172564 62.0679906 65.12184726 66.71289062 69.76171875 C75.80580055 78.84394595 84.90178496 87.92308742 94 97 C91 97 91 97 88.4765625 94.76953125 C87.51833693 93.79134265 86.56808791 92.80529119 85.625 91.8125 C85.15578125 91.32974609 84.6865625 90.84699219 84.203125 90.34960938 C83.30845062 89.42898449 82.4169177 88.50528712 81.52978516 87.57739258 C79.37866156 85.3593253 77.18602825 83.18367321 75 81 C18 24 18 24 15.27355957 21.26916504 C13.82748828 19.82588883 12.3714299 18.39249929 10.90234375 16.97265625 C0.8466922 7.19688367 0.8466922 7.19688367 0 0 Z " fill="#DEDEDE" transform="translate(539,575)"/>
<path d="M0 0 C0.99 0.495 0.99 0.495 2 1 C-4.60953431 6.63279999 -11.26912838 11.17865588 -19 15.125 C-20.00039307 15.63925537 -21.00078613 16.15351074 -22.03149414 16.68334961 C-28.04164294 19.70062711 -34.0627919 22.41338594 -40.4375 24.5625 C-41.07236328 24.77729004 -41.70722656 24.99208008 -42.36132812 25.21337891 C-54.7089624 29.0371824 -67.05177888 30.48835645 -79.92163086 30.33618164 C-82.09330284 30.31215927 -84.26377173 30.31571024 -86.43554688 30.32226562 C-93.0030632 30.29630375 -98.73436562 30.02148066 -105 28 C-105 27.67 -105 27.34 -105 27 C-104.22100342 27.0407666 -103.44200684 27.0815332 -102.6394043 27.12353516 C-65.53619523 28.97609983 -29.798497 24.43106587 0 0 Z " fill="#CBCBCB" transform="translate(465,488)"/>
<path d="M0 0 C3.75059519 3.34329073 5.98047424 7.03074239 8.375 11.375 C8.96317505 12.43412598 8.96317505 12.43412598 9.56323242 13.51464844 C23.33832191 38.74308791 28.41963836 64.99933922 28.125 93.4375 C28.1149366 95.1516874 28.10581676 96.86588061 28.09765625 98.58007812 C28.07593996 102.72019945 28.04160128 106.86003272 28 111 C27.67 111 27.34 111 27 111 C26.98541748 110.04448242 26.97083496 109.08896484 26.95581055 108.10449219 C26.46718904 74.48532354 26.46718904 74.48532354 18.68701172 41.93554688 C17.98908499 39.9692487 17.32443645 37.99351087 16.66015625 36.015625 C13.01115391 25.46095624 8.27029185 14.56168787 1.23046875 5.796875 C0 4 0 4 0 0 Z " fill="#D6D6D6" transform="translate(520,294)"/>
<path d="M0 0 C-0.79921875 0.4125 -1.5984375 0.825 -2.421875 1.25 C-30.67886878 16.10813757 -54.97583223 37.0903568 -71 65 C-71.33 63.68 -71.66 62.36 -72 61 C-71.34 61 -70.68 61 -70 61 C-69.75636719 60.12085938 -69.51273438 59.24171875 -69.26171875 58.3359375 C-67.90243573 54.74204369 -66.29524469 52.53934058 -63.8125 49.625 C-63.00683594 48.67238281 -62.20117188 47.71976562 -61.37109375 46.73828125 C-60.58863281 45.83464844 -59.80617187 44.93101562 -59 44 C-58.37222656 43.27167969 -57.74445313 42.54335938 -57.09765625 41.79296875 C-55.96055419 40.48568815 -54.81613403 39.18473274 -53.6640625 37.890625 C-52.55327943 36.62860856 -51.46446928 35.34691376 -50.3984375 34.046875 C-44.83782355 27.35305537 -38.04093506 20.57793363 -30 17 C-30 16.34 -30 15.68 -30 15 C-22.90222416 9.50015275 -14.96149709 5.11169422 -7 1 C-5.948125 0.39285156 -5.948125 0.39285156 -4.875 -0.2265625 C-3 -1 -3 -1 0 0 Z " fill="#E0E0E0" transform="translate(314,239)"/>
<path d="M0 0 C0.66 0 1.32 0 2 0 C15.40078606 23.6142527 24.91227207 45.39532302 24 73 C23.67 73 23.34 73 23 73 C22.91363281 71.94425781 22.82726562 70.88851562 22.73828125 69.80078125 C21.93971737 61.05060265 20.64844024 52.5551392 18.625 44 C18.42817627 43.15348877 18.23135254 42.30697754 18.02856445 41.43481445 C15.80910489 32.4150084 12.22935826 24.11894442 8 15.875 C7.33333333 14.55989583 6.66666667 13.24479167 6 11.9296875 C5.67515625 11.29256836 5.3503125 10.65544922 5.015625 9.99902344 C3.32660244 6.6745723 1.66464143 3.3367143 0 0 Z " fill="#C7C7C7" transform="translate(491,311)"/>
<path d="M0 0 C1.65 0 3.3 0 5 0 C1.23722378 3.13801338 -2.72264462 5.79236926 -6.875 8.375 C-10.88285794 10.89740251 -14.69875655 13.40833651 -18.25 16.5625 C-21 19 -21 19 -23 19 C-23.26683594 19.60714844 -23.53367187 20.21429688 -23.80859375 20.83984375 C-25.33227522 23.6024531 -27.53123484 25.12531305 -29.9375 27.10546875 C-36.50705938 33.14000719 -41.74981145 40.81444783 -47 48 C-47.495 46.515 -47.495 46.515 -48 45 C-39.68007591 30.8430611 -25.8271912 18.18015776 -12.75 8.5 C-11.83891479 7.82396729 -11.83891479 7.82396729 -10.90942383 7.13427734 C-7.66164066 4.8388791 -4.97864412 3.41880464 -1 3 C-0.67 2.01 -0.34 1.02 0 0 Z " fill="#EAEAEA" transform="translate(321,269)"/>
<path d="M0 0 C0.33 0 0.66 0 1 0 C0.57508952 23.67910199 -8.70691976 46.97324486 -21 67 C-21.99 67.495 -21.99 67.495 -23 68 C-22.44235985 62.81601191 -19.86603286 58.84001597 -17.375 54.375 C-8.01444343 37.07718828 -2.97085654 19.39794564 0 0 Z " fill="#D9D9D9" transform="translate(546,406)"/>
<path d="M0 0 C6.04265914 5.00255879 11.56098043 10.43177324 17.08984375 15.9921875 C18.04368954 16.94790248 18.99775941 17.90339388 19.95204163 18.8586731 C22.44153194 21.35194916 24.92800224 23.84821525 27.41381836 26.34515381 C29.95957994 28.90121509 32.50823777 31.45438505 35.05664062 34.0078125 C40.04057069 39.00241019 45.02131048 44.00017799 50 49 C47 49 47 49 45.46948242 47.79418945 C44.93685791 47.23948975 44.4042334 46.68479004 43.85546875 46.11328125 C43.26056641 45.50419922 42.66566406 44.89511719 42.05273438 44.26757812 C41.12944336 43.29981445 41.12944336 43.29981445 40.1875 42.3125 C35.17343999 37.0867987 35.17343999 37.0867987 29.76171875 32.28515625 C27.40710564 30.33685545 25.54822884 28.47778248 23.625 26.125 C21.24375591 23.32415343 18.80698414 20.87347307 16 18.5 C12.51054522 15.54375011 9.55780455 12.3488008 6.609375 8.859375 C5.16106642 7.18608645 3.66155886 5.65219104 2.0625 4.125 C0 2 0 2 0 0 Z " fill="#E6E6E6" transform="translate(633,673)"/>
<path d="M0 0 C3.58380184 1.34564207 6.96459569 2.96338699 10.36621094 4.71606445 C21.73406303 10.5671648 33.12504745 15.71053631 45.70703125 18.359375 C48 19 48 19 50 21 C33.43895504 21.68205076 14.26028535 11.44156372 1 2 C0.67 1.34 0.34 0.68 0 0 Z " fill="#CACACA" transform="translate(309,494)"/>
<path d="M0 0 C4.18381862 0.61526744 7.29525174 1.97287359 11 4 C11.67417969 4.36609375 12.34835937 4.7321875 13.04296875 5.109375 C18.70934778 8.33645853 23.95946518 12.05476457 29.1875 15.9375 C29.85249512 16.42726318 30.51749023 16.91702637 31.20263672 17.42163086 C35.2867793 20.49868983 38.92371446 23.78238886 42.45043945 27.48657227 C44.12952936 29.21962875 44.12952936 29.21962875 47 31 C46.67 31.66 46.34 32.32 46 33 C44.35063952 31.71284028 42.70560953 30.42012981 41.0625 29.125 C40.14597656 28.40570313 39.22945313 27.68640625 38.28515625 26.9453125 C36 25 36 25 35 23 C33.34288275 21.98425387 31.67432684 20.98712076 30 20 C28.21728463 18.64044065 26.44738284 17.26398815 24.6875 15.875 C19.14655496 11.65891355 13.37922548 8.22312968 7.2565918 4.91943359 C2.17094056 2.17094056 2.17094056 2.17094056 0 0 Z " fill="#EAEAEA" transform="translate(454,238)"/>
<path d="M0 0 C3.813264 1.553552 6.21103415 4.0845823 9 7 C10.49727025 8.50272479 11.99751038 10.00249376 13.5 11.5 C14.2734375 12.27601563 15.046875 13.05203125 15.84375 13.8515625 C17.10391072 15.10715742 18.37139289 16.35562621 19.65625 17.5859375 C21.91566317 19.75339781 22.98630078 20.95890234 24 24 C20.14559568 22.42968713 17.88940078 19.94752091 15 17 C14.03734993 16.05635068 13.07247338 15.11496772 12.10546875 14.17578125 C11.13278804 13.2213791 10.16013192 12.26695188 9.1875 11.3125 C8.43436523 10.58450195 8.43436523 10.58450195 7.66601562 9.84179688 C6.40582727 8.59875394 5.19808956 7.30300108 4 6 C4 5.34 4 4.68 4 4 C3.01 3.67 2.02 3.34 1 3 C0.67 2.01 0.34 1.02 0 0 Z " fill="#D2D2D2" transform="translate(781,821)"/>
<path d="M0 0 C0.33 0.66 0.66 1.32 1 2 C-0.03933767 4.26927022 -1.12966559 6.43246368 -2.3125 8.625 C-4.9703262 13.71781339 -6.87310386 18.36551929 -8 24 C-8.63028587 25.68076231 -9.28050817 27.35544725 -10 29 C-10.66 29 -11.32 29 -12 29 C-12.33 30.32 -12.66 31.64 -13 33 C-14.42339356 30.15321287 -13.54718591 28.87400191 -12.5625 25.875 C-9.47132452 16.92686047 -5.25777396 7.88666094 0 0 Z " fill="#B5B5B5" transform="translate(241,304)"/>
<path d="M0 0 C0.33 0 0.66 0 1 0 C1.35650826 5.34762385 0.37068662 9.54891223 -1.1328125 14.66796875 C-2.87142058 21.34829619 -3.87497536 28.19399986 -5 35 C-5.66 34.67 -6.32 34.34 -7 34 C-6.33044761 30.12118736 -5.65478187 26.24349266 -4.97363281 22.36669922 C-4.6302822 20.40517661 -4.29166626 18.44282713 -3.953125 16.48046875 C-3.73398438 15.23652344 -3.51484375 13.99257813 -3.2890625 12.7109375 C-3.09006348 11.56931152 -2.89106445 10.42768555 -2.68603516 9.25146484 C-2.01248963 6.05919464 -1.09411712 3.07084916 0 0 Z " fill="#B9B9B9" transform="translate(226,337)"/>
<path d="M0 0 C0.8385438 2.38400931 1.10606185 3.65640588 0.35083008 6.10302734 C-0.00599854 6.8398877 -0.36282715 7.57674805 -0.73046875 8.3359375 C-1.12169922 9.15320313 -1.51292969 9.97046875 -1.91601562 10.8125 C-2.33560547 11.658125 -2.75519531 12.50375 -3.1875 13.375 C-3.58775391 14.21289062 -3.98800781 15.05078125 -4.40039062 15.9140625 C-6.63914233 20.52944688 -9.0344817 24.81418797 -12 29 C-13 26 -13 26 -12.13549805 23.81103516 C-11.68215088 22.97878418 -11.22880371 22.1465332 -10.76171875 21.2890625 C-10.27123047 20.37382812 -9.78074219 19.45859375 -9.27539062 18.515625 C-8.75138672 17.56171875 -8.22738281 16.6078125 -7.6875 15.625 C-6.66847225 13.74332361 -5.65147628 11.86054519 -4.63671875 9.9765625 C-4.17998779 9.14205566 -3.72325684 8.30754883 -3.25268555 7.44775391 C-2.00587095 5.01147186 -0.97512447 2.55567552 0 0 Z " fill="#A7A7A7" transform="translate(536,445)"/>
<path d="M0 0 C-0.79921875 0.4125 -1.5984375 0.825 -2.421875 1.25 C-9.37773165 4.90753965 -15.89548403 8.79230957 -22.34375 13.30078125 C-24.84632839 14.90169537 -27.20958483 16.00414531 -30 17 C-30 16.34 -30 15.68 -30 15 C-22.90222416 9.50015275 -14.96149709 5.11169422 -7 1 C-6.29875 0.59523437 -5.5975 0.19046875 -4.875 -0.2265625 C-3 -1 -3 -1 0 0 Z " fill="#EBEBEB" transform="translate(314,239)"/>
<path d="M0 0 C1.65312636 2.47968954 2.89803633 4.74272424 4.125 7.4375 C4.47820312 8.19933594 4.83140625 8.96117187 5.1953125 9.74609375 C6 12 6 12 6 16 C6.66 16 7.32 16 8 16 C8 17.32 8 18.64 8 20 C8.66 20 9.32 20 10 20 C10 21.65 10 23.3 10 25 C5.23974533 18.96546177 -0.49429013 11.12392094 -0.4375 3.1875 C-0.293125 2.135625 -0.14875 1.08375 0 0 Z " fill="#8C8C8C" transform="translate(231,442)"/>
<path d="M0 0 C6.49220017 0.53350256 11.94476651 2.21388793 18 4.5625 C18.87011719 4.89185547 19.74023438 5.22121094 20.63671875 5.56054688 C22.76093854 6.36588295 24.88175164 7.17911481 27 8 C27 8.33 27 8.66 27 9 C21.5064963 9.46753223 18.0408817 8.41457548 13.11328125 5.97265625 C11.08067355 5.03713071 9.18229666 4.46798687 7 4 C7 3.34 7 2.68 7 2 C4.69 1.67 2.38 1.34 0 1 C0 0.67 0 0.34 0 0 Z " fill="#C7C7C7" transform="translate(422,226)"/>
<path d="M0 0 C5.36979423 3.2452962 9.50711014 7.27206641 13.875 11.75 C14.56335938 12.44738281 15.25171875 13.14476562 15.9609375 13.86328125 C17.64529582 15.57103343 19.32477617 17.28329443 21 19 C20.67 19.66 20.34 20.32 20 21 C14.72281025 16.50062734 9.87894517 11.96169319 5.5078125 6.56640625 C3.97826206 4.73487801 3.97826206 4.73487801 1 4 C0.3125 1.9375 0.3125 1.9375 0 0 Z " fill="#D9D9D9" transform="translate(518,498)"/>
<path d="M0 0 C5.00137179 0.38684644 7.63771803 3.01483656 11.0625 6.375 C15.81532149 10.94002839 15.81532149 10.94002839 21 15 C20.67 15.66 20.34 16.32 20 17 C18.35063952 15.71284028 16.70560953 14.42012981 15.0625 13.125 C14.14597656 12.40570313 13.22945313 11.68640625 12.28515625 10.9453125 C10 9 10 9 9 7 C8.236875 6.54625 7.47375 6.0925 6.6875 5.625 C4.01605453 4.00970739 2.11790496 2.27478681 0 0 Z " fill="#DBDBDB" transform="translate(480,254)"/>
<path d="M0 0 C3.40969497 1.13656499 4.49344422 2.64476589 6.68359375 5.390625 C8.6251592 7.76428959 10.80637356 9.85987665 13 12 C14.1054757 13.10285608 15.20962854 14.20703964 16.3125 15.3125 C17.199375 16.199375 18.08625 17.08625 19 18 C18.67 18.66 18.34 19.32 18 20 C14.99196428 17.04974274 11.9949821 14.08850331 9 11.125 C8.14148438 10.28324219 7.28296875 9.44148437 6.3984375 8.57421875 C5.58632813 7.76855469 4.77421875 6.96289062 3.9375 6.1328125 C2.80634766 5.01737061 2.80634766 5.01737061 1.65234375 3.87939453 C0 2 0 2 0 0 Z " fill="#DDDDDD" transform="translate(826,790)"/>
<path d="M0 0 C0.66 0.33 1.32 0.66 2 1 C-3.28 6.28 -8.56 11.56 -14 17 C-14.66 16.67 -15.32 16.34 -16 16 C-11.03093773 10.1719243 -5.90436923 4.8836671 0 0 Z " fill="#373737" transform="translate(278,261)"/>
<path d="M0 0 C8.62172694 -0.366882 16.04522388 1.81808955 24 5 C24 5.33 24 5.66 24 6 C18.3444819 5.39496146 12.99786009 4.37814297 7.5 2.9375 C6.77296875 2.75123047 6.0459375 2.56496094 5.296875 2.37304688 C3.53012276 1.91973545 1.76489225 1.4604998 0 1 C0 0.67 0 0.34 0 0 Z " fill="#B8B8B8" transform="translate(405,223)"/>
<path d="M0 0 C3.74544316 3.32928281 7.01959997 7.37002367 9 12 C8.63671875 14.25 8.63671875 14.25 8 16 C6.65543396 14.09119643 5.32469479 12.17264729 4 10.25 C3.2575 9.18265625 2.515 8.1153125 1.75 7.015625 C0 4 0 4 0 0 Z " fill="#ACACAC" transform="translate(520,294)"/>
<path d="M0 0 C0.33 0.99 0.66 1.98 1 3 C-0.33774181 5.29665408 -1.69128382 7.36327965 -3.25 9.5 C-3.65863281 10.08136719 -4.06726563 10.66273438 -4.48828125 11.26171875 C-6.47557596 14.05415536 -8.45882346 16.68983951 -11 19 C-11 17.68 -11 16.36 -11 15 C-10.34 15 -9.68 15 -9 15 C-8.814375 14.195625 -8.62875 13.39125 -8.4375 12.5625 C-6.46767565 7.68076139 -3.34377814 4.02326247 0 0 Z " fill="#EFEFEF" transform="translate(253,285)"/>
<path d="M0 0 C5.17791319 4.66012187 6.26266789 9.11250977 6.9140625 15.83984375 C7.0144003 18.3619711 6.70343871 20.57704443 6 23 C5.67 23 5.34 23 5 23 C4.96132813 21.85724609 4.96132813 21.85724609 4.921875 20.69140625 C4.57430344 14.36402392 3.74967624 9.39616807 0.83984375 3.7421875 C0 2 0 2 0 0 Z " fill="#CDCDCD" transform="translate(845,810)"/>
<path d="M0 0 C6.16618181 -0.40214229 11.17745757 1.03181664 17 3 C17 3.33 17 3.66 17 4 C10.83381819 4.40214229 5.82254243 2.96818336 0 1 C0 0.67 0 0.34 0 0 Z " fill="#C4C4C4" transform="translate(342,511)"/>
<path d="M0 0 C11.11868687 10.79166667 11.11868687 10.79166667 13 17 C7.46289156 12.68105542 3.38378732 8.19741268 0 2 C0 1.34 0 0.68 0 0 Z " fill="#D6D6D6" transform="translate(249,480)"/>
<path d="M0 0 C3.45101522 4.24740335 6.73279209 8.61105071 10 13 C9.67 13.66 9.34 14.32 9 15 C4.46149703 11.84826183 2.36048703 8.89582495 0 4 C0 2.68 0 1.36 0 0 Z " fill="#A8A8A8" transform="translate(269,449)"/>
<path d="M0 0 C1.62671023 3.11356754 2.94882554 6.27576452 4.1875 9.5625 C4.55230469 10.51253906 4.91710937 11.46257812 5.29296875 12.44140625 C6 15 6 15 5 18 C0.26056345 12.39884772 -0.24322543 7.05353749 0 0 Z " fill="#A2A2A2" transform="translate(257,419)"/>
<path d="M0 0 C3.79049707 1.42749981 7.27122456 3.16236542 10.8125 5.125 C12.27623047 5.93324219 12.27623047 5.93324219 13.76953125 6.7578125 C14.50558594 7.16773438 15.24164063 7.57765625 16 8 C16 8.66 16 9.32 16 10 C12.35524815 8.63649571 9.08755513 6.998536 5.75 5 C4.44289063 4.2265625 4.44289063 4.2265625 3.109375 3.4375 C1 2 1 2 0 0 Z " fill="#DCDCDC" transform="translate(309,494)"/>
<path d="M0 0 C0.33 0.99 0.66 1.98 1 3 C-0.40833381 5.1962951 -1.81653657 7.16069889 -3.4375 9.1875 C-3.87126953 9.74630859 -4.30503906 10.30511719 -4.75195312 10.88085938 C-5.82546453 12.26108832 -6.9115694 13.63150539 -8 15 C-8.33 14.01 -8.66 13.02 -9 12 C-7.59166619 9.8037049 -6.18346343 7.83930111 -4.5625 5.8125 C-4.12873047 5.25369141 -3.69496094 4.69488281 -3.24804688 4.11914062 C-2.17453547 2.73891168 -1.0884306 1.36849461 0 0 Z " fill="#B8B8B8" transform="translate(282,302)"/>
<path d="M0 0 C1.65 0 3.3 0 5 0 C1.19752197 3.226345 -2.55070439 5.77535219 -7 8 C-7.99 7.67 -8.98 7.34 -10 7 C-3.25 3 -3.25 3 -1 3 C-0.67 2.01 -0.34 1.02 0 0 Z " fill="#AAAAAA" transform="translate(321,269)"/>
<path d="M0 0 C0.99 0.33 1.98 0.66 3 1 C1.72992786 1.9593419 0.45891081 2.91743294 -0.8125 3.875 C-1.87404297 4.67550781 -1.87404297 4.67550781 -2.95703125 5.4921875 C-4.60456297 6.70814781 -6.29624211 7.86416141 -8 9 C-8.99 8.67 -9.98 8.34 -11 8 C-9.23871656 6.63343543 -7.46563912 5.28205915 -5.6875 3.9375 C-4.70136719 3.18339844 -3.71523438 2.42929687 -2.69921875 1.65234375 C-1.80847656 1.10707031 -0.91773438 0.56179688 0 0 Z " fill="#CECECE" transform="translate(310,277)"/>
<path d="M0 0 C1.69752187 0.25245197 3.38471545 0.57645775 5.0625 0.9375 C5.98160156 1.13214844 6.90070312 1.32679688 7.84765625 1.52734375 C8.91306641 1.76130859 8.91306641 1.76130859 10 2 C10 2.33 10 2.66 10 3 C5.545 3.495 5.545 3.495 1 4 C0.34 3.01 -0.32 2.02 -1 1 C-0.67 0.67 -0.34 0.34 0 0 Z " fill="#F6F6F6" transform="translate(561,539)"/>
<path d="M0 0 C2.97 0.33 5.94 0.66 9 1 C9 1.66 9 2.32 9 3 C10.65 3 12.3 3 14 3 C13.67 3.66 13.34 4.32 13 5 C11.39402675 4.54803755 9.79027492 4.08817673 8.1875 3.625 C6.84751953 3.24214844 6.84751953 3.24214844 5.48046875 2.8515625 C3 2 3 2 0 0 Z " fill="#7E7E7E" transform="translate(423,261)"/>
<path d="M0 0 C1.98 0 3.96 0 6 0 C1.94191935 2.7053871 -2.04889399 5 -7 5 C-7 4.34 -7 3.68 -7 3 C-3.535 2.505 -3.535 2.505 0 2 C0 1.34 0 0.68 0 0 Z " fill="#888888" transform="translate(339,261)"/>
<path d="M0 0 C0.66 0 1.32 0 2 0 C3.59138085 4.17737474 4.21278058 7.53160785 4 12 C1.21366885 7.82050327 0 5.06624674 0 0 Z " fill="#979797" transform="translate(227,434)"/>
<path d="M0 0 C1.80125336 2.70188004 3.00243753 4.93057703 4 8 C3.67 8.99 3.34 9.98 3 11 C3 10.34 3 9.68 3 9 C2.01 8.67 1.02 8.34 0 8 C0 5.36 0 2.72 0 0 Z " fill="#717171" transform="translate(231,442)"/>
<path d="M0 0 C3.95820859 0.56545837 6.6659053 1.80902348 10 4 C9.01 4.495 9.01 4.495 8 5 C6.0546875 4.22265625 6.0546875 4.22265625 3.875 3.0625 C3.15054687 2.68222656 2.42609375 2.30195312 1.6796875 1.91015625 C1.12539063 1.60980469 0.57109375 1.30945313 0 1 C0 0.67 0 0.34 0 0 Z " fill="#B4B4B4" transform="translate(306,531)"/>
<path d="M0 0 C2.5 2.3125 2.5 2.3125 5 5 C5 5.99 5 6.98 5 8 C2.5 6.25 2.5 6.25 0 4 C0 2.68 0 1.36 0 0 Z " fill="#C1C1C1" transform="translate(279,464)"/>
<path d="M0 0 C4.31392226 0.4793247 6.16569547 1.7457985 9 5 C4.98525763 5 3.18024863 3.33218233 0 1 C0 0.67 0 0.34 0 0 Z " fill="#ABABAB" transform="translate(451,274)"/>
<path d="M0 0 C2.4294516 3.6441774 2.16179575 5.71241272 2 10 C1.34 9.67 0.68 9.34 0 9 C-0.99444068 5.65506316 -1.10348268 3.31044803 0 0 Z " fill="#ACACAC" transform="translate(512,357)"/>
<path d="M0 0 C2.3125 0.1875 2.3125 0.1875 5 1 C6.8125 3.5625 6.8125 3.5625 8 6 C4.63408134 4.55746343 2.48952921 2.66735273 0 0 Z " fill="#BBBBBB" transform="translate(480,254)"/>
</svg>
